<svg id="Capa_1" data-name="Capa 1" xmlns="http://www.w3.org/2000/svg" viewBox="0 0 201.27 234.63"><defs><style>.cls-1{fill:#8fd1e3;}</style></defs><path class="cls-1" d="M100.91,104.76c.34,0,.67,0,1,0a19.79,19.79,0,0,1,2.33-7.43c4.19-7.15,14-8.45,11.1-15.06S92.45,65.46,73.92,75.7C55.65,85.8,59.06,103.41,66,110.36c5.41,5.41,14.48,7.66,18,8.36A17.16,17.16,0,0,1,100.91,104.76Z"/><path class="cls-1" d="M85.59,129.6a19.73,19.73,0,0,1-7.6,1.69c-8.28,0-14.29-7.86-18.59-2.08s-3.16,28.26,15,39.19c17.88,10.77,31.43-1,34-10.49,2-7.39-.61-16.37-1.79-19.82a17.05,17.05,0,0,1-21-8.49Z"/><path class="cls-1" d="M128.36,97.47c-7.39,2-13.87,8.71-16.27,11.46a17.12,17.12,0,0,1,3.14,22.42,19.68,19.68,0,0,1,5.26,5.72c4.1,7.2.34,16.31,7.49,17.14s26.05-11.39,26.45-32.57C154.82,100.78,137.85,94.93,128.36,97.47Z"/><circle class="cls-1" cx="100.91" cy="121.91" r="13.86"/><polygon class="cls-1" points="38.74 193.68 37.27 195.15 35.81 196.61 51.3 215.79 54.61 212.48 57.92 209.17 38.74 193.68"/><polygon class="cls-1" points="161.85 196.61 160.38 195.15 158.91 193.68 139.73 209.17 143.04 212.48 146.35 215.79 161.85 196.61"/><path class="cls-1" d="M193.27,207.68c-4.11,15-15.33,18.32-25.43,18.32H33.44c-10.1,0-21.32-3.36-25.44-18.32S6.68,97.84,26,54C44.18,12.45,84.3,9.45,100.64,9.45s56.45,3,74.68,44.51C194.59,97.84,197.39,192.72,193.27,207.68ZM140,32.27c-8.44-13.09-26-15.84-39.33-15.84S69.75,19.18,61.3,32.27C50.48,49.05,150.8,49.05,140,32.27ZM100.64,54.58a69.13,69.13,0,1,0,69.13,69.13A69.13,69.13,0,0,0,100.64,54.58Zm-56,124.75a2.07,2.07,0,1,0,2.91.25A2.07,2.07,0,0,0,44.61,179.33ZM35,182a2.07,2.07,0,1,0,2.78-.9A2.06,2.06,0,0,0,35,182Zm-7.81,6.13a2.07,2.07,0,1,0,2.21-1.91A2.06,2.06,0,0,0,27.22,188.09Zm-4.83,8.68a2.07,2.07,0,1,0,1.3-2.62A2.06,2.06,0,0,0,22.39,196.77Zm24-8.52a16.16,16.16,0,1,0,16.15,16.16A16.15,16.15,0,0,0,46.34,188.25Zm105.77,0a16.16,16.16,0,1,0,16.15,16.16A16.16,16.16,0,0,0,152.11,188.25Zm-21.22,11.33a21.3,21.3,0,0,1,7.72-11.65l-.94-1.23A22.62,22.62,0,0,0,130.89,199.58Zm8.75-14.53c.32.52.63,1,.94,1.56a22.22,22.22,0,0,1,10.65-3c0-1,0-2.09-.08-3.14A24.53,24.53,0,0,0,139.64,185.05Zm14.2-4.8-.27,3.41a21.88,21.88,0,0,1,10.49,3.56l2.67-4A25.9,25.9,0,0,0,153.84,180.25ZM179,197.89a26.39,26.39,0,0,0-9.76-13.09L166,188.65a21.47,21.47,0,0,1,6.82,10.93Z"/></svg>