<?xml version="1.0" encoding="UTF-8"?>
<svg viewBox="0 0 32 32" xmlns="http://www.w3.org/2000/svg"><path d="M 27.337 4.679 C 24.358 1.672 20.297 -0.014 16.064 0 C 7.284 0 0.129 7.156 0.129 15.936 C 0.129 18.75 0.868 21.484 2.251 23.896 L 0 32.161 L 8.442 29.942 C 10.774 31.212 13.395 31.888 16.064 31.888 C 24.844 31.888 32 24.732 32 15.952 C 32 11.691 30.344 7.687 27.337 4.679 M 16.064 29.186 C 13.684 29.186 11.353 28.543 9.311 27.337 L 8.828 27.047 L 3.811 28.366 L 5.146 23.477 L 4.824 22.979 C 3.502 20.868 2.799 18.427 2.798 15.936 C 2.798 8.635 8.748 2.686 16.048 2.686 C 19.586 2.686 22.915 4.068 25.407 6.577 C 27.9 9.058 29.296 12.434 29.282 15.952 C 29.315 23.252 23.365 29.186 16.064 29.186 M 23.333 19.28 C 22.931 19.088 20.969 18.123 20.615 17.978 C 20.245 17.849 19.988 17.785 19.715 18.171 C 19.441 18.573 18.685 19.473 18.46 19.731 C 18.235 20.004 17.994 20.036 17.592 19.827 C 17.19 19.634 15.904 19.2 14.392 17.849 C 13.202 16.788 12.414 15.486 12.173 15.084 C 11.948 14.681 12.141 14.472 12.35 14.263 C 12.527 14.087 12.752 13.797 12.945 13.572 C 13.138 13.347 13.218 13.17 13.347 12.913 C 13.475 12.639 13.411 12.414 13.315 12.221 C 13.218 12.028 12.414 10.066 12.092 9.262 C 11.771 8.491 11.433 8.587 11.192 8.571 L 10.42 8.571 C 10.147 8.571 9.729 8.667 9.359 9.069 C 9.005 9.471 7.976 10.436 7.976 12.398 C 7.976 14.36 9.407 16.257 9.6 16.515 C 9.793 16.788 12.414 20.808 16.402 22.529 C 17.351 22.947 18.09 23.188 18.669 23.365 C 19.618 23.67 20.486 23.622 21.178 23.526 C 21.95 23.413 23.542 22.561 23.863 21.628 C 24.201 20.696 24.201 19.908 24.088 19.731 C 23.976 19.554 23.735 19.473 23.333 19.28" fill="rgb(250, 250, 250)" height="32.160890805501936px" id="m4jhbQzd3" width="32px"/></svg>