<?xml version="1.0" encoding="UTF-8"?>
<svg xmlns="http://www.w3.org/2000/svg" width="252" height="269" viewBox="0 0 252 269" fill="none">
<path d="M191.205 225.344C148.736 225.319 105.346 226.027 62.8345 226.006H61.6231H61.0195H60.7156C60.6157 226.006 60.4825 225.998 60.3701 225.993C59.4251 225.948 58.4968 225.602 57.7267 225.056C56.3696 224.09 55.5537 222.454 55.5703 220.792L55.6036 220.176L55.7285 217.757C55.9575 213.014 56.2031 207.95 56.3738 203.245C58.4052 153.268 58.3178 103.078 55.945 53.113L55.895 51.9012C55.87 51.4931 55.8825 51.0184 55.9783 50.5895C56.1573 49.7151 56.6027 48.9031 57.2271 48.2701C58.143 47.3165 59.5084 46.7794 60.8197 46.8127L62.0311 46.8044C64.9992 46.8169 73.4582 46.7169 76.5637 46.7211C110.333 46.5379 154.21 46.4379 187.979 46.3838H190.402C190.814 46.3921 191.176 46.3671 191.697 46.4088C194.278 46.617 196.492 48.9239 196.446 51.5431C195.689 75.1784 195.676 100.184 195.547 123.915C195.439 149.445 195.368 175.979 195.489 201.442C195.522 207.859 195.585 214.488 195.647 220.797C195.843 221.384 195.834 222.037 195.614 222.616C194.923 224.34 192.995 225.323 191.205 225.352V225.344ZM191.205 225.177C193.412 225.211 196.23 223.295 195.468 220.851C194.79 165.131 193.095 109.37 194.611 53.6251L194.648 52.4134L194.669 51.8054V51.5389C194.694 50.1773 193.761 48.8822 192.471 48.3909C191.78 48.1202 191.197 48.1452 190.41 48.1494H187.987C154.218 48.0952 110.341 47.9953 76.5721 47.8121C73.5207 47.8329 65.0284 47.7163 62.0394 47.7288L60.828 47.7205C58.5842 47.5955 56.5278 49.586 56.7442 51.8596C58.5593 107.075 59.4584 162.62 57.2147 217.823L57.0898 220.243L57.0565 220.834C57.0731 221.001 57.0565 221.151 57.0939 221.321C57.3187 223.228 59.1004 224.69 61.0237 224.519C62.0311 224.536 64.2083 224.507 65.2615 224.519C106.969 224.511 149.547 225.223 191.209 225.186L191.205 225.177Z" fill="black"/>
<path d="M182.484 84.4188C155.825 83.84 121.061 84.398 94.206 84.5229C91.396 84.5562 87.1957 84.6353 84.4066 84.7311C78.845 84.8643 72.8296 85.1766 67.293 85.718C63.7878 86.251 60.5533 83.2487 60.2494 79.83C60.1786 79.1012 60.2161 78.081 60.1994 77.3482C60.1786 72.8093 60.1661 64.631 60.1245 60.1755C60.1078 59.7049 60.1162 58.7555 60.1495 58.2975C60.4117 55.4492 62.6846 53.0132 65.4613 52.4136C79.3445 51.5142 93.3068 51.4517 107.219 51.0894C131.734 50.7438 156.354 50.1692 180.84 51.8306C182.168 51.9805 184.47 51.993 185.819 52.4261C188.774 53.2173 191.234 55.9822 191.08 59.1386C191.022 63.032 190.889 71.2561 190.847 75.0871C190.822 76.2155 190.851 78.2767 190.785 79.3886C190.344 83.1654 185.706 84.3688 182.488 84.4188H182.484ZM182.488 84.2522C185.469 84.1689 189.544 83.1779 190.443 79.9549C190.606 79.1928 190.518 78.3517 190.531 77.5397C190.531 75.9948 190.46 71.7808 190.448 70.1776L190.294 60.3629C190.298 59.6841 190.294 58.6514 190.156 57.9935C190.002 57.2481 189.694 56.5444 189.253 55.9323C187.871 54.0085 185.544 53.1923 183.204 53.2006L180.761 53.0882C179.225 53.0174 177.364 52.9175 175.873 52.8966C153.015 52.2928 130.107 52.5011 107.244 52.6551L68.009 53.1007C67.2055 53.1215 66.4271 53.0882 65.6486 53.2589C63.384 53.7086 61.4399 55.5283 60.9487 57.8061C60.7822 58.4557 60.8072 59.505 60.7947 60.1755C60.7489 64.5977 60.7406 72.8468 60.7198 77.3482C60.7239 78.0352 60.6865 79.1054 60.7531 79.7717C61.0361 82.4783 63.2758 85.0434 66.0607 85.1975C66.7393 85.2599 68.9415 84.9601 69.6783 84.906C74.374 84.4063 79.6609 84.0482 84.3733 83.8025C117.06 81.8829 149.805 83.4111 182.492 84.2481L182.488 84.2522Z" fill="black"/>
<path d="M168.243 137.081C164.833 137.273 161.495 138.247 158.098 138.464C156.824 138.526 155.679 137.381 155.75 136.111C155.942 132.93 156.291 129.728 156.179 126.538L156.137 125.193C156.083 124.052 157.103 123.111 158.235 123.14C160.025 123.015 161.82 122.899 163.61 122.853C165.408 122.799 167.177 122.749 168.996 122.724C169.692 122.724 170.387 123.044 170.841 123.577C171.282 124.069 171.486 124.76 171.444 125.414C171.432 128.112 171.265 130.789 170.953 133.475C170.861 134.375 170.782 135.258 170.72 136.174C170.532 137.256 169.055 137.052 168.247 137.09L168.243 137.081ZM168.239 136.915C168.896 136.882 170.324 136.973 170.391 136.149C170.224 133.475 169.8 130.773 169.733 128.095C169.704 127.142 169.679 126.192 169.671 125.239C169.671 125.051 169.617 124.889 169.492 124.743C169.359 124.597 169.175 124.498 168.971 124.493C167.21 124.46 165.395 124.414 163.614 124.36C161.765 124.314 159.917 124.189 158.073 124.064C157.411 123.99 156.803 124.527 156.766 125.197L156.72 126.538C156.612 129.673 156.941 132.822 157.14 135.945C157.14 136.215 157.211 136.503 157.415 136.694C157.586 136.869 157.815 136.969 158.056 136.969H158.002C161.407 136.707 164.838 137.202 168.247 136.919L168.239 136.915Z" fill="black"/>
<path d="M168.955 121.4C165.35 121.35 161.749 122.075 158.14 122.066C157.748 122.071 157.349 122 156.999 121.817C156.187 121.413 155.667 120.505 155.763 119.597C155.771 119.476 155.825 119.102 155.837 118.977C155.9 118.46 156.1 117.024 156.179 116.491C156.508 114.288 156.703 112.077 156.757 109.849C156.774 108.746 156.574 106.676 158.264 106.734C161.79 106.468 165.604 106.368 169.15 106.326C170.358 106.393 171.394 107.446 171.436 108.654C171.436 109.849 171.398 111.048 171.357 112.243C171.261 114.467 170.953 116.686 170.778 118.902C170.716 119.468 170.778 120.101 170.437 120.588C170.12 121.096 169.537 121.404 168.955 121.4ZM168.955 121.234C169.483 121.234 169.995 120.925 170.229 120.463C170.499 119.976 170.358 119.426 170.328 118.902C170.249 117.794 170.116 116.682 170.004 115.575C169.766 113.359 169.683 111.14 169.662 108.916C169.683 108.317 169.25 108.033 168.663 108.088C165.287 108.017 161.616 107.938 158.264 107.675C158.123 107.684 157.936 107.605 157.815 107.725C157.444 108.129 157.403 108.891 157.369 109.453C157.128 111.802 157.032 114.159 157.099 116.52C157.128 117.423 157.136 118.848 157.136 119.743C157.19 120.234 157.644 120.613 158.135 120.572C161.745 120.563 165.345 121.288 168.951 121.238L168.955 121.234Z" fill="black"/>
<path d="M168.955 169.778C166.715 169.753 164.475 170.003 162.236 170.228C161.116 170.332 159.996 170.415 158.876 170.436C158.198 170.448 157.457 170.511 156.857 170.119C156.146 169.711 155.708 168.87 155.75 168.083C155.858 165.843 156.129 163.602 156.175 161.362C156.212 159.971 156.183 158.551 156.133 157.156C156.1 156.107 156.966 154.991 158.102 155.137C159.159 155.237 160.275 155.162 161.382 155.124C163.451 155.045 166.84 154.85 168.901 154.7C170.262 154.637 171.457 155.807 171.44 157.161C171.427 158.297 171.402 159.405 171.357 160.529C171.269 162.774 170.957 165.014 170.778 167.25C170.711 167.821 170.778 168.458 170.445 168.953C170.129 169.47 169.542 169.786 168.951 169.782L168.955 169.778ZM168.955 169.611C169.488 169.611 170.004 169.299 170.237 168.828C170.503 168.337 170.353 167.775 170.328 167.246C170.149 165.01 169.837 162.77 169.75 160.525C169.704 159.409 169.683 158.277 169.667 157.173C169.658 156.923 169.521 156.686 169.3 156.565C169.2 156.503 169.055 156.469 168.963 156.469C165.262 156.532 161.657 156.744 157.952 156.028C157.407 155.836 156.766 156.569 156.762 157.161L156.732 157.998C156.574 161.366 156.936 164.718 157.145 168.079C157.182 168.57 157.573 168.937 158.048 168.945C161.69 168.924 165.325 169.661 168.963 169.611H168.955Z" fill="black"/>
<path d="M168.955 153.788C165.599 153.739 162.248 154.376 158.889 154.442C158.252 154.442 157.432 154.521 156.878 154.138C156.162 153.73 155.721 152.91 155.754 152.106C155.858 149.87 156.125 147.63 156.179 145.394C156.212 144.274 156.195 143.158 156.17 142.037C156.17 141.479 156.05 140.73 156.362 140.222C156.67 139.614 157.332 139.177 158.052 139.143L158.502 139.597C158.514 139.452 158.406 139.289 158.289 139.218C160.338 139.414 162.685 139.318 164.742 139.268C165.841 139.214 166.948 139.135 167.968 138.935C168.73 138.748 169.483 138.448 170.208 138.927C171.136 139.497 171.511 140.501 171.444 141.534L171.44 141.954C171.432 142.487 171.386 143.936 171.369 144.486C171.282 146.739 170.97 148.991 170.791 151.24C170.724 151.815 170.791 152.448 170.462 152.951C170.145 153.472 169.558 153.793 168.963 153.784L168.955 153.788ZM168.955 153.622C169.492 153.622 170.008 153.305 170.241 152.835C170.503 152.339 170.353 151.773 170.328 151.244C170.149 148.996 169.837 146.743 169.75 144.49C169.717 143.661 169.679 141.987 169.667 141.159C169.658 140.876 169.433 140.501 169.246 140.443C169.234 140.438 169.263 140.443 169.209 140.443C166.599 141.063 163.968 140.851 161.349 140.655C160.267 140.534 159.18 140.409 158.123 140.13C158.031 140.101 157.931 140.068 157.831 140.005C157.698 139.926 157.594 139.751 157.603 139.589L158.052 140.043C157.652 140.005 157.207 140.193 156.97 140.572C156.687 140.905 156.766 141.634 156.732 142.037C156.578 145.402 156.949 148.75 157.149 152.106C157.19 152.581 157.586 152.956 158.056 152.96L158.897 152.972C162.257 153.043 165.608 153.676 168.963 153.626L168.955 153.622Z" fill="black"/>
<path d="M168.955 104.722C165.354 104.672 161.757 105.397 158.148 105.389C157.761 105.397 157.361 105.326 157.011 105.147C156.116 104.731 155.629 103.681 155.763 102.744L155.787 102.328C155.817 101.812 155.925 100.371 155.971 99.8336C156.187 97.3477 156.241 94.8451 156.137 92.3508C156.121 92.0385 156.125 91.7053 156.237 91.4055C156.499 90.606 157.357 90.0189 158.227 90.0647C158.481 90.0647 159.209 90.0564 159.476 90.0564C162.065 90.0147 165.171 90.1813 167.781 90.2687C168.796 90.2854 169.7 90.2562 170.657 90.7892C171.024 90.9891 171.448 91.5346 171.44 92.0343C171.44 92.0843 171.444 92.1884 171.44 92.2384C171.423 93.346 171.402 94.4536 171.357 95.5655C171.261 97.7849 170.953 100.004 170.778 102.216C170.716 102.782 170.778 103.411 170.437 103.898C170.12 104.406 169.537 104.714 168.955 104.71V104.722ZM168.955 104.556C169.483 104.556 169.995 104.248 170.229 103.79C170.499 103.302 170.358 102.753 170.333 102.228C170.253 101.12 170.12 100.013 170.008 98.9009C169.771 96.6898 169.687 94.4703 169.667 92.2508V92.1467C169.667 92.1176 169.667 92.1384 169.667 92.1467C169.667 92.1925 169.683 92.2467 169.704 92.2842C169.741 92.3466 169.754 92.3425 169.721 92.3216C169.65 92.2717 169.446 92.205 169.234 92.1634C168.813 92.0718 168.284 92.0426 167.839 92.0301C164.883 91.7761 161.541 91.4888 158.618 91.0641L158.206 91.0099C157.386 90.8309 156.691 91.5263 156.753 92.3591C156.558 95.9277 156.911 99.5547 157.153 103.115C157.224 103.602 157.677 103.935 158.152 103.898C161.761 103.889 165.358 104.614 168.959 104.564L168.955 104.556Z" fill="black"/>
<path d="M169.009 186.784C165.783 187.179 161.911 187.433 158.323 187.467C158.085 187.471 157.811 187.467 157.569 187.417C156.449 187.225 155.617 186.018 155.763 184.935L155.8 184.344C156.058 180.996 156.32 177.644 156.141 174.287C156.062 173.038 157.078 171.81 158.427 172.201C161.878 172.414 165.4 172.018 168.88 171.718C169.945 171.66 170.986 172.376 171.315 173.396C171.469 173.775 171.444 174.267 171.44 174.67C171.382 177.985 171.232 181.308 170.957 184.614C170.92 184.868 170.949 185.256 170.807 185.501C170.641 185.839 170.179 185.876 169.92 185.905C169.392 185.947 169.192 186.288 169.013 186.78L169.009 186.784ZM168.901 186.659C168.842 186.372 169.03 185.922 169.279 185.697C169.575 185.414 170.041 185.36 170.195 185.251C170.229 185.226 170.216 185.218 170.212 185.21C170.212 185.201 170.212 185.168 170.199 185.118L170.158 184.623C169.904 181.65 169.766 178.656 169.692 175.674L169.675 174.679L169.667 174.196C169.658 173.825 169.334 173.496 168.959 173.492C165.774 173.642 161.682 173.929 158.244 173.138L157.936 173.047C157.444 172.884 157.024 173.346 156.849 173.8C156.72 174.058 156.766 174.587 156.741 174.879C156.578 178.239 156.916 181.587 157.14 184.935C157.14 185.376 157.27 185.61 157.59 185.834C157.79 185.976 158.073 185.972 158.306 185.968C161.811 186.009 165.05 186.259 168.909 186.651L168.901 186.659Z" fill="black"/>
<path d="M168.955 218.786C165.899 218.736 162.839 219.269 159.784 219.41C159.118 219.431 158.46 219.473 157.794 219.439C156.861 219.319 155.991 218.757 155.738 217.774C155.633 217.462 155.75 216.929 155.85 216.687C156.757 213.302 156.628 209.646 156.133 206.189C156.062 205.153 156.991 204.153 158.052 204.132C158.181 204.132 159.043 204.057 159.197 204.057C162.019 203.841 165.529 203.787 168.372 203.716C168.709 203.716 169.142 203.678 169.475 203.758C170.645 203.982 171.515 205.123 171.44 206.31L171.432 206.768C171.398 208.555 171.348 210.503 171.165 212.277C171.053 213.502 170.907 214.726 170.807 215.95L170.736 216.866C170.795 217.845 169.97 218.832 168.955 218.79V218.786ZM168.955 218.619C169.691 218.623 170.345 218.024 170.387 217.299C170.399 217.037 170.32 216.229 170.299 215.946C170.199 214.722 170.05 213.497 169.941 212.277C169.762 210.512 169.7 208.555 169.675 206.772C169.662 206.672 169.675 206.243 169.662 206.144C169.642 205.781 169.313 205.477 168.951 205.477C165.895 205.411 162.244 205.348 159.205 205.123C158.947 205.115 158.144 205.036 157.89 205.044C157.294 205.065 156.791 205.569 156.757 206.189C156.899 209.092 157.315 212.348 157.332 215.4C157.319 215.929 157.278 216.462 157.174 217.02C157.09 217.395 157.103 217.353 157.132 217.432C157.303 217.803 157.852 217.995 158.256 217.953C161.828 217.953 165.387 218.669 168.955 218.619Z" fill="black"/>
<path d="M168.955 202.795C165.591 202.745 162.248 203.382 158.889 203.449L158.048 203.461C156.795 203.495 155.679 202.354 155.75 201.109C156.262 197.665 157.245 193.942 156.241 190.515C156.154 190.299 156.021 190.024 156.054 189.782C156.154 188.812 157.136 188.221 158.027 188.142C158.219 188.138 159.393 188.046 159.613 188.038C162.644 187.821 165.891 187.784 168.934 187.713C170.187 187.675 171.332 188.691 171.436 189.945C171.457 191.127 171.407 192.331 171.365 193.513C171.29 195.2 171.119 196.886 170.94 198.569C170.853 199.41 170.778 200.255 170.724 201.096C170.695 202.025 169.879 202.82 168.959 202.795H168.955ZM168.955 202.629C169.762 202.641 170.47 201.896 170.391 201.096C170.337 200.255 170.262 199.41 170.174 198.569C169.858 195.833 169.679 193.101 169.671 190.353C169.712 189.945 169.446 189.528 169.017 189.491C168.971 189.491 168.826 189.483 168.776 189.483C165.354 189.408 161.761 189.341 158.348 189.075C158.214 189.075 157.944 189.033 157.802 189.058C157.303 189.108 156.558 189.533 156.728 190.074C157.115 191.186 157.115 192.393 157.165 193.538C157.215 196.095 157.299 198.635 157.132 201.196L157.136 201.109C157.178 201.588 157.573 201.958 158.044 201.962C161.686 201.942 165.304 202.674 168.951 202.629H168.955Z" fill="black"/>
<path d="M187.692 137.673C184.049 137.627 180.432 138.36 176.785 138.339C175.507 138.372 174.379 137.19 174.491 135.92C174.758 134.266 175.116 132.622 175.395 130.973C175.665 129.378 175.865 127.521 175.969 126.03C175.965 125.28 175.619 124.352 175.973 123.523C176.069 123.294 176.373 123.061 176.652 123.032C176.81 123.015 176.852 123.015 176.939 123.007C177.081 123.003 177.489 122.965 177.634 122.961C180.881 122.728 184.665 122.628 187.929 122.599C189.403 122.732 190.335 124.069 190.173 125.501C190.14 127.308 190.098 129.282 189.911 131.073C189.798 132.309 189.648 133.55 189.544 134.787L189.469 135.716C189.536 136.702 188.716 137.714 187.688 137.673H187.692ZM187.692 137.506C188.437 137.51 189.099 136.894 189.128 136.161C189.132 135.89 189.057 135.078 189.036 134.787C188.932 133.55 188.782 132.309 188.67 131.073C188.495 129.282 188.433 127.304 188.408 125.501L188.4 125.055C188.391 124.71 188.104 124.402 187.758 124.364C186.143 124.331 183 124.248 181.348 124.193C179.828 124.144 178.28 124.031 176.76 123.927C176.731 123.927 176.752 123.89 176.702 123.939C176.66 123.985 176.619 124.098 176.594 124.223C176.498 124.751 176.564 125.393 176.556 126.051C176.431 126.879 176.335 127.712 176.24 128.545C175.961 131.039 176.002 133.559 175.869 136.061V135.986C175.898 136.303 176.082 136.586 176.348 136.727C176.598 136.902 177.322 136.827 177.613 136.848C180.973 136.915 184.316 137.552 187.679 137.502L187.692 137.506Z" fill="black"/>
<path d="M187.692 121.274C184.395 121.029 181.019 121.416 177.763 121.774C177.268 121.82 176.877 122.003 176.373 121.962C175.107 121.832 174.35 120.467 174.512 119.309C174.666 117.264 174.928 115.091 175.016 113.046C175.187 111.347 174.77 109.569 175.378 107.941C175.611 107.321 176.123 106.588 176.897 106.617C180.415 106.342 184.249 106.259 187.792 106.196C189.007 106.209 190.085 107.229 190.177 108.441C190.194 109.652 190.144 110.864 190.102 112.076C190.011 114.308 189.698 116.536 189.523 118.763C189.457 119.334 189.523 119.967 189.186 120.458C188.87 120.97 188.287 121.283 187.696 121.279L187.692 121.274ZM187.696 121.108C188.221 121.108 188.741 120.8 188.97 120.333C189.236 119.842 189.091 119.288 189.066 118.763C188.891 116.54 188.579 114.308 188.487 112.076C188.441 110.943 188.416 109.811 188.404 108.682C188.4 108.316 188.091 107.983 187.721 107.97C184.203 107.895 180.39 107.82 176.893 107.545C176.102 107.433 175.619 109.086 175.615 109.715C175.503 111.947 175.536 114.175 175.699 116.402C175.761 117.214 175.848 118.868 175.89 119.68C175.973 120.1 176.273 120.575 176.681 120.454C180.369 119.846 184.041 120.987 187.696 121.116V121.108Z" fill="black"/>
<path d="M187.692 169.649C184.337 169.591 180.981 170.244 177.626 170.303L176.997 170.315C175.436 170.432 174.262 169.078 174.512 167.546C174.749 164.194 175.062 160.834 174.887 157.477C174.683 156.136 175.603 154.962 176.993 154.983L177.622 154.941C180.136 154.75 182.655 154.683 185.173 154.621L187.692 154.567C188.337 154.558 188.999 154.821 189.457 155.287C189.931 155.758 190.206 156.432 190.181 157.098C190.102 157.969 190.015 158.839 189.919 159.705C189.648 162.295 189.041 164.848 188.653 167.421C188.574 168.092 188.753 169.607 187.692 169.645V169.649ZM187.692 169.482C188.616 169.399 188.304 168.046 188.308 167.396C188.325 164.794 188.125 162.179 188.262 159.576C188.304 158.71 188.35 157.848 188.408 156.982V157.053C188.408 156.674 188.075 156.34 187.692 156.336C184.374 156.266 180.927 156.207 177.626 155.962C176.831 155.916 176.169 155.741 175.707 156.428C175.49 156.744 175.49 157.073 175.482 157.473C175.47 157.894 175.449 158.314 175.449 158.731C175.378 161.254 175.569 163.765 175.778 166.284L175.861 167.542C175.873 168.287 175.998 168.566 176.573 168.783C176.731 168.833 177.409 168.812 177.634 168.824C180.99 168.887 184.345 169.536 187.7 169.478L187.692 169.482Z" fill="black"/>
<path d="M187.692 153.659C184.078 153.605 180.473 154.342 176.86 154.325C175.873 154.371 175.378 153.384 175.257 152.643C175.066 151.765 175.162 150.903 175.162 150.032C175.216 147.555 175.253 145.077 175.024 142.608C174.999 141.971 174.837 141.317 174.903 140.684C175.057 139.647 176.044 138.956 177.076 138.993C180.536 138.723 184.124 138.656 187.6 138.581C187.663 138.581 187.908 138.569 188.137 138.635C189.44 138.972 189.265 140.546 189.207 141.471C189.228 141.912 189.361 143.266 189.39 144.019C189.569 146.659 189.39 149.32 189.461 151.964C189.436 152.893 188.616 153.688 187.696 153.663L187.692 153.659ZM187.692 153.493C188.495 153.526 189.211 152.71 189.128 151.989C188.853 150.249 188.449 148.521 188.133 146.784C187.813 145.04 187.609 143.278 187.421 141.517C187.413 141.042 187.471 140.571 187.446 140.292C187.446 140.159 187.388 140.097 187.479 140.23C187.584 140.38 187.842 140.355 187.592 140.351C184.328 140.28 180.935 140.222 177.688 139.98C177.38 139.972 176.847 139.901 176.544 139.922C175.994 139.972 175.528 140.488 175.499 141.046C175.515 141.558 175.52 142.079 175.549 142.591C175.632 145.077 175.986 147.534 176.352 149.995C176.494 150.898 176.477 151.923 176.835 152.747C176.956 152.96 176.927 152.826 176.785 152.826C180.428 152.801 184.058 153.547 187.692 153.493Z" fill="black"/>
<path d="M187.692 104.723C183.954 104.656 180.219 105.485 176.477 105.368C175.399 105.247 174.52 104.29 174.491 103.211C174.508 102.341 174.591 101.437 174.654 100.58C174.949 97.6397 174.949 94.7332 174.891 91.785C174.995 90.9688 175.665 90.2651 176.481 90.111C176.802 90.0527 178.188 89.982 178.529 89.9528C181.418 89.7529 184.765 89.7071 187.663 89.6405C189.261 89.5947 189.79 91.4102 189.715 92.7011C189.748 94.0169 189.794 95.3495 189.761 96.6653C189.723 98.7807 189.494 100.909 189.461 103.028C189.84 103.853 188.687 104.752 187.696 104.719L187.692 104.723ZM187.692 104.556C188.445 104.556 189.569 103.902 189.128 103.045C188.745 99.8842 188.129 96.7278 187.992 93.5381C187.917 92.9135 188.008 91.9099 187.7 91.4186C184.844 91.3478 181.368 91.2936 178.533 91.1021C178.317 91.0938 176.802 90.9688 176.614 90.9855C175.744 91.048 175.424 91.8308 175.482 92.6386C175.303 96.0865 175.657 99.526 175.878 102.966C175.878 103.424 176.231 103.832 176.677 103.886C180.357 103.878 184.024 104.602 187.696 104.56L187.692 104.556Z" fill="black"/>
<path d="M187.692 186.676C184.632 186.626 181.572 187.159 178.517 187.301C177.851 187.322 177.189 187.363 176.523 187.326C175.59 187.201 174.72 186.639 174.471 185.656C174.371 185.34 174.487 184.811 174.591 184.565C175.565 181.192 175.42 177.528 174.87 174.08C174.799 173.043 175.728 172.044 176.789 172.023C176.918 172.023 177.78 171.948 177.934 171.948C180.756 171.731 184.266 171.677 187.109 171.607C187.446 171.607 187.879 171.569 188.212 171.648C189.382 171.873 190.252 173.014 190.177 174.201L190.169 174.659C190.135 176.445 190.085 178.394 189.902 180.164C189.79 181.388 189.64 182.612 189.544 183.832L189.474 184.748C189.532 185.727 188.708 186.714 187.692 186.672V186.676ZM187.692 186.51C188.425 186.514 189.082 185.914 189.124 185.19C189.136 184.927 189.057 184.12 189.036 183.836C188.937 182.612 188.787 181.388 188.678 180.168C188.499 178.402 188.437 176.445 188.412 174.663C188.4 174.563 188.412 174.134 188.4 174.034C188.379 173.672 188.05 173.372 187.688 173.368C184.632 173.301 180.981 173.239 177.942 173.014C177.684 173.006 176.881 172.927 176.627 172.935C176.007 172.922 175.507 173.593 175.495 174.043C175.661 176.237 176.156 181.155 176.098 183.299C176.086 183.895 175.982 184.661 175.853 185.231C175.853 185.265 175.857 185.29 175.873 185.323C176.04 185.694 176.594 185.885 176.997 185.844C180.573 185.844 184.133 186.56 187.7 186.51H187.692Z" fill="black"/>
<path d="M187.692 218.656C184.337 218.606 180.985 219.247 177.626 219.31L176.785 219.322C175.532 219.355 174.416 218.214 174.487 216.969C174.691 213.613 175.057 210.265 174.899 206.901L174.87 206.06C174.816 205.002 175.694 204.044 176.781 203.998C180.078 203.977 183.491 204.136 186.751 203.732C187.48 203.582 188.329 203.378 188.966 203.832C190.369 204.656 190.202 206.318 190.148 207.696L190.098 209.378C190.011 211.627 189.698 213.871 189.519 216.112C189.453 216.686 189.519 217.319 189.186 217.819C188.87 218.335 188.283 218.656 187.692 218.648V218.656ZM187.692 218.489C188.225 218.489 188.745 218.173 188.974 217.702C189.236 217.207 189.086 216.645 189.066 216.116C188.982 214.991 188.849 213.871 188.737 212.747C188.499 210.536 188.425 208.242 188.4 206.035C188.4 205.781 188.2 205.439 188.042 205.36C184.287 205.772 180.478 205.489 176.743 204.91C176.256 204.835 175.503 205.335 175.49 206.06L175.461 206.896C175.303 210.261 175.669 213.609 175.873 216.965C175.915 217.444 176.311 217.815 176.781 217.819C180.423 217.798 184.053 218.535 187.688 218.485L187.692 218.489Z" fill="black"/>
<path d="M187.692 202.666C184.386 202.379 180.981 202.737 177.726 203.158C177.022 203.291 176.244 203.549 175.615 203.108C174.82 202.616 174.446 201.742 174.5 200.851C174.616 198.719 174.858 196.466 174.916 194.334C174.949 193.214 174.937 192.094 174.903 190.969L174.874 190.128C174.787 189.091 175.64 188.084 176.718 188.017C179.974 187.751 183.541 187.671 186.818 187.596C187.479 187.588 188.287 187.505 188.899 187.884C189.669 188.296 190.181 189.154 190.181 190.028C190.165 192.302 190.085 194.513 189.848 196.766C189.74 197.886 189.603 199.006 189.523 200.13C189.457 200.705 189.523 201.338 189.19 201.833C188.874 202.35 188.291 202.666 187.692 202.662V202.666ZM187.696 202.5C188.22 202.5 188.745 202.187 188.974 201.717C189.236 201.221 189.091 200.663 189.066 200.134C188.887 197.894 188.574 195.654 188.487 193.41C188.441 192.294 188.42 191.153 188.404 190.062C188.387 189.67 188.066 189.354 187.663 189.358C184.124 189.291 180.261 189.2 176.752 188.925C176.107 188.866 175.49 189.449 175.495 190.128L175.465 190.969C175.436 192.089 175.424 193.21 175.453 194.334C175.495 195.954 175.653 197.753 175.778 199.377L175.882 201.026C175.94 201.421 176.223 201.917 176.602 201.854C180.307 201.138 184.02 202.329 187.692 202.5H187.696Z" fill="black"/>
<path d="M137.338 120.783C124.787 120.121 112.198 120.621 99.6385 120.3C96.916 120.275 92.9863 120.188 90.2221 120.188C84.7604 120.204 79.2071 120.254 73.7954 121.075L72.6339 121.249L72.0553 121.337L71.9096 121.358L71.7348 121.374C71.6182 121.395 71.4975 121.374 71.3809 121.362C69.9988 121.045 69.6283 119.446 69.4951 118.243C69.3286 116.981 69.774 115.611 70.7773 114.77C71.4392 114.204 72.3051 113.875 73.1876 113.854L73.0003 114.641C72.9586 114.62 72.9212 114.595 72.8879 114.562C72.8337 114.545 72.7005 114.275 72.7588 114.154C72.8504 113.9 72.9253 113.904 73.0211 113.842C73.3291 113.729 73.812 113.717 74.1326 113.679C79.3528 113.334 84.6147 113.271 89.8391 113.246C98.1982 113.275 106.607 113.363 114.941 114.179C123.225 114.516 131.622 114.141 139.939 113.946C141.967 113.971 143.674 115.815 143.507 117.831C143.124 119.913 139.132 120.729 137.329 120.775L137.338 120.783ZM137.342 120.617C139.103 120.542 142.82 119.73 143.186 117.806C143.274 116.061 141.667 114.499 139.948 114.599C133.125 115.27 126.027 115.969 119.071 116.024C117.389 116.032 115.428 116.015 113.763 115.869C111.399 115.649 108.872 115.47 106.511 115.353C96.7995 114.808 87.0417 114.629 77.313 114.529C76.4263 114.533 74.5738 114.529 73.6871 114.591L73.4499 114.612L73.3541 114.624C73.3541 114.624 73.3375 114.629 73.3666 114.616C73.4332 114.574 73.4956 114.579 73.5789 114.345C73.6372 114.233 73.5081 113.975 73.4623 113.966C73.4374 113.942 73.4082 113.921 73.3791 113.908L73.1918 114.695C72.5007 114.683 71.8055 114.912 71.2519 115.345C70.3943 116.019 69.9822 117.115 70.1029 118.201C70.1612 119.259 70.5858 121.116 71.9679 120.825C87.3664 118.747 103.019 118.43 118.517 119.413C124.707 119.8 131.139 120.3 137.346 120.617H137.342Z" fill="black"/>
<path d="M136.047 153.734C123.496 153.072 110.907 153.571 98.3481 153.251C95.6255 153.226 91.6958 153.138 88.9316 153.138C85.0185 153.151 81.0763 153.168 77.1715 153.501C75.3606 153.634 73.1252 153.892 71.3435 154.2L70.7648 154.288L70.6191 154.309C69.4535 154.529 68.675 153.38 68.4253 152.41C67.5636 149.757 68.8998 146.926 71.8929 146.805L71.7056 147.592C71.6557 147.563 71.6432 147.563 71.5682 147.492C71.3351 147.275 71.4933 146.834 71.7847 146.784C72.1427 146.713 72.7214 146.755 73.0919 146.751C82.5416 147.021 92.1454 147.579 101.591 147.538C104.884 147.5 108.181 147.463 111.428 147.171C112.847 147.03 114.991 146.838 116.407 146.792C123.796 146.426 131.401 146.667 138.799 146.909C140.83 146.992 142.562 149.028 142.162 151.036C141.413 152.943 137.891 153.659 136.039 153.721L136.047 153.734ZM136.051 153.567C137.8 153.522 142.125 152.535 141.883 150.398C141.763 148.829 140.335 147.525 138.782 147.554C134.374 147.671 125.956 148.083 121.448 148.271C118.209 148.416 114.825 148.57 111.599 148.958C99.1765 149.836 86.6795 148.683 74.2991 147.729L73.0669 147.642L72.4549 147.609L72.1594 147.6H72.0262C72.0262 147.6 71.9887 147.6 71.997 147.6C72.3425 147.529 72.4008 146.996 72.0844 146.855L71.8971 147.642C69.4077 147.642 68.2962 150.045 68.9873 152.256C69.1996 153.068 69.7199 154.021 70.6732 153.771C71.0187 153.721 72.0678 153.571 72.43 153.517C87.2706 151.727 102.307 151.39 117.223 152.36C123.413 152.747 129.84 153.247 136.051 153.563V153.567Z" fill="black"/>
<path d="M136.601 185.756C124.058 185.827 111.515 186.814 98.9683 186.614C89.7601 186.51 80.5393 186.189 71.3268 186.339C69.645 186.489 68.8249 184.628 68.7583 183.208C68.596 181.946 69.0455 180.584 70.0446 179.747C70.7065 179.181 71.5683 178.856 72.4466 178.836L72.2635 179.618L72.2093 179.589L72.1511 179.552C72.1927 179.585 71.9512 179.435 71.9721 179.181C72.38 178.498 72.3467 178.902 72.3883 178.786C72.559 178.786 72.8338 178.856 73.0086 178.885C79.2529 180.122 85.6971 180.239 92.0122 179.564C93.4151 179.377 95.5589 179.235 97.0118 179.152C111.091 178.448 125.244 178.473 139.336 178.935C141.376 179.002 143.116 181.038 142.733 183.05C141.996 184.969 138.457 185.69 136.605 185.752L136.601 185.756ZM136.601 185.59C138.358 185.544 142.695 184.553 142.437 182.408C142.308 180.838 140.868 179.535 139.315 179.577C125.657 180.239 110.778 180.451 97.0867 180.78C95.6089 180.843 93.6357 180.934 92.1662 181.101C85.5972 181.7 78.9324 181.242 72.534 179.652L72.405 179.623C72.3925 179.623 72.3883 179.623 72.3925 179.623C72.3925 179.623 72.38 179.623 72.4216 179.623C72.4508 179.506 72.405 179.906 72.8046 179.235C72.8254 178.99 72.5965 178.856 72.6464 178.894C72.6381 178.89 72.6298 178.881 72.6215 178.877L72.634 178.885L74.0119 179.693C72.8962 179.681 71.4434 179.493 70.5109 180.318C69.3078 181.226 69.133 182.891 69.5409 184.265C69.9572 185.623 70.5858 185.914 71.9138 185.819C80.9306 185.844 89.9515 185.415 98.9642 185.207C111.511 184.853 124.058 185.681 136.601 185.598V185.59Z" fill="black"/>
<path d="M179.162 77.2525C173.688 76.9235 167.643 76.5946 162.136 76.3864C153.102 76.657 143.853 77.0318 134.748 77.1692C114.433 77.4982 93.3693 76.9277 73.0627 77.444L71.3476 77.4773L70.4901 77.4982C68.8999 77.6564 67.2763 76.5071 66.9724 74.8956C66.5145 72.9135 68.1297 70.8523 70.182 70.8565L71.9138 70.8981C82.5375 71.1521 95.5881 71.5602 106.158 71.7434C124.133 71.8184 142.982 71.123 160.949 71.252C163.218 71.2479 176.019 71.2187 178.088 71.1771L178.946 71.1646C179.225 71.1521 179.541 71.1812 179.828 71.2437C183.292 72.1182 182.817 77.1775 179.162 77.2525ZM179.166 77.0859C182.488 77.0151 183.079 72.2889 179.766 71.5102C179.241 71.3978 178.663 71.4852 178.092 71.4936L174.666 71.631C156.608 72.5013 137.883 73.2924 119.854 73.4423C103.893 73.6589 87.8077 72.7178 71.868 71.86L70.1737 71.7642C68.6709 71.7309 67.4054 73.2466 67.7259 74.7415C67.8966 75.7243 68.7042 76.5696 69.6991 76.7736C70.5151 76.9027 72.1552 76.8069 73.0503 76.8278C91.0048 76.8652 109.892 76.0699 127.871 75.7659C139.298 75.5744 150.73 75.7617 162.161 75.8534C167.648 76.3239 173.68 76.732 179.158 77.0776L179.166 77.0859Z" fill="black"/>
<path d="M179.183 64.5892C159.696 63.9063 140.185 64.1977 120.703 63.5232C115.832 63.3691 110.962 63.2275 106.095 63.1692C95.1551 63.0609 84.1734 63.9479 73.2584 64.6891L71.4267 64.8348C70.028 64.8723 68.7167 63.9479 68.2754 62.6237C67.5178 60.5708 69.1829 58.1973 71.3809 58.2181L100.629 58.2223C114.221 58.1848 130.956 58.1723 144.469 57.9183C147.995 57.8517 151.87 57.7268 155.409 57.5644C161.528 57.4061 167.639 57.8309 173.729 58.1806L177.38 58.4138L179.204 58.5304C179.836 58.5429 180.473 58.7511 180.981 59.1384C183.287 60.8373 182.097 64.6058 179.191 64.585L179.183 64.5892ZM179.183 64.4226C181.835 64.4351 183.042 60.8956 180.823 59.3424C180.348 58.9968 179.77 58.8261 179.183 58.8261L177.355 58.7553C176.14 58.7053 174.92 58.6762 173.7 58.6512C167.623 58.5512 161.532 58.3972 155.479 58.8344C149.427 59.3716 143.253 59.6381 137.192 59.7547C115.258 60.2002 93.2943 59.8046 71.3726 59.1425C69.0122 59.1176 67.9424 62.2365 69.9072 63.6731C70.3319 63.9979 70.8772 64.1686 71.3976 64.1811L73.2126 64.0811L76.8634 63.8605C85.389 63.4232 97.6862 62.4738 106.087 62.2531C130.481 61.5785 154.83 63.469 179.183 64.4309V64.4226Z" fill="black"/>
<path d="M151.483 92.9219C152.395 106.867 152.52 121.175 152.066 135.154C151.879 144.099 152.299 153.097 152.599 162.029C153.086 179.951 153.202 197.865 152.428 215.787H152.262C151.208 197.882 151.05 179.964 151.262 162.037C151.425 153.101 151.708 144.098 151.383 135.158C151.075 127.825 150.75 119.447 150.842 112.122C150.888 105.764 150.975 99.2721 151.317 92.9219H151.483Z" fill="black"/>
<path d="M148.885 92.9512C150.047 133.747 150.372 175.009 149.83 215.817C148.661 175.021 148.353 133.759 148.885 92.9512Z" fill="black"/>
</svg>