<?xml version="1.0" encoding="UTF-8"?>
<svg xmlns="http://www.w3.org/2000/svg" width="216" height="306" viewBox="0 0 216 306" fill="none">
<path d="M182.74 65.5698C185.63 66.0198 188.4 68.4698 188.18 71.6898L187.42 235.77C186.99 238.54 185.58 240.42 182.66 240.45L69.94 239.93C67.14 240.06 65.68 238.98 64.76 236.45L65.62 86.0098C66.99 84.3898 68.28 82.7698 70.63 83.0798C100.66 85.3498 134.31 80.6798 163.91 83.5098C165.96 83.7099 167.61 83.9199 168.92 85.7299L168.71 218.34C168.78 220.81 167.82 222.98 165.25 223.55L86.31 222.97L83.79 220.43L84.32 102.69C85.92 100.51 87.48 100.01 90.07 99.7798C107.5 98.2498 127.34 101.23 145.03 100.05L150.05 102.99L150.01 201.64L147.27 205.41L104.03 204.69L102.11 202.28L102.27 121.53C103.52 118.19 104.61 117.51 108.06 117.21C112.35 116.84 123.52 116.73 127.56 117.37C130.06 117.77 131.4 119.23 131.97 121.63V183.41C131.01 187.65 126.69 190.18 122.94 187.4C122.35 186.96 120.44 184.56 120.45 184.12L120.7 129.93C118.51 127.54 115.65 127.56 113.48 129.9L113.19 193.48C114.29 194.77 115.52 195.12 117.14 195.32C119.99 195.67 134.95 195.74 136.85 194.86C137.51 194.56 138.11 194.22 138.35 193.47L138.69 112.82C138.01 110.87 136.63 110.99 134.91 110.81C126.14 109.9 108.33 109.96 99.44 110.66C97.98 110.78 95.93 110.69 95.25 112.28L94.68 210.38L97.53 211.87L155.22 211.95L156.82 210.66L157.56 96.2798C156.5 94.0498 154.52 93.7598 152.33 93.5499C129.62 91.3899 103.8 94.9498 80.76 93.2498L76.6 95.5798L76.26 227.91L78.3 229.48L172.47 230.07C175.04 229.49 176 227.33 175.93 224.86L176.58 81.7398C177.09 79.9698 174.95 76.3498 173.32 76.3398L27.74 75.6798V73.5098L173.33 74.1698C176.77 74.1898 179.03 79.4199 178.74 82.4799L178.1 224.86C178.1 229.63 175.23 232.46 170.48 232.41C141.73 230.4 109.96 234.55 81.56 232.01C79.42 231.82 75.9 231.39 74.68 229.47L75 93.9698C76.03 92.4398 77.37 91.5598 79.28 91.7598C103.49 93.6199 130.64 89.8098 154.5 92.1098C158.22 92.4698 159.88 93.4799 159.89 97.5499L158.96 211.36C157.34 213.46 156.57 214.04 153.95 214.29C135.97 215.99 115.09 212.66 96.79 214.02L92.96 211.34L93.47 111.17C94.39 109.29 96.04 108.71 98.01 108.49C106.32 107.56 127.21 107.76 135.64 108.63C138.25 108.9 139.02 109.49 140.62 111.6L140.47 194.16C139.14 196.86 136.49 197.32 133.77 197.56C129.49 197.94 113.14 198.52 111.37 194.53L111.44 129.31C113.88 124.93 120.29 124.95 122.7 129.36L122.62 183.38C124.01 187.81 129.35 187.2 129.87 182.74C128.41 163.84 132 141.99 130.1 123.45C129.99 122.37 129.88 121.28 129.22 120.38C127.94 119.09 110.27 119.07 107.4 119.46C104.25 119.88 104.31 121.19 104.06 124.04C101.9 148.3 105.45 175.4 103.71 199.97C103.64 202.25 105.68 203.54 107.74 203.88C113.26 204.81 138.88 204.88 144.5 204.04C146.38 203.76 147.96 203.02 147.86 200.89L147.61 103.24L145.05 102.18C128.05 103.99 105.8 99.5699 89.43 102.01C87.55 102.29 85.97 103.03 86.07 105.16L86.24 220.15L88.8 221.21L163.28 221.55C165.84 221.59 167.11 219.12 167.26 216.85L167.84 91.0898C167.63 88.4698 167.46 85.6398 164.33 85.3498L69.96 85.2798L68.06 86.2598L66.7 234.47C66.66 237.03 69.13 238.3 71.4 238.45L182.35 238.61L184.85 236.78L185.82 70.3898C185.34 68.7698 182.9 67.7298 181.29 67.6798C134.41 66.7098 87.17 68.6598 40.42 66.3098C36.74 66.1298 32.32 66.7498 28.82 66.2898C27.5 66.1198 27.65 66.5298 27.76 64.8398L182.73 65.5398L182.74 65.5698Z" fill="black"/>
</svg>