<svg id="Capa_1" data-name="Capa 1" xmlns="http://www.w3.org/2000/svg" viewBox="0 0 201.27 234.63"><defs><style>.cls-1{fill:#8fd1e3;}</style></defs><path class="cls-1" d="M115.44,12.05c-3.87,6.42-9.1,13.15-12.2,20.75-3.61,8.84-1.32,17.89,4.17,25.65a107.16,107.16,0,0,0,12.07,14.31c13.76,13.55,22.08,29.65,24.21,48.89a32.78,32.78,0,0,0,.6,3.26c.11.53.3,1,.64,2.19,10.22-8.4,11.83-20.61,15.42-32.51,17.8,25.74,28.42,52.45,20.54,83.51-7.41,29.23-31.15,46.41-61.69,44,12.85-5.82,22.68-13.41,28.16-25.47s5.52-24.39.44-38.22c-8.54,12.45-17.88,22.39-32.11,28.49,15.26-29.81,2.42-53.13-14.55-76.26C83.81,133.5,71,156.64,85.9,186.87,71.05,180.79,62.64,170,54.27,159c-11.74,21.26-1.41,44.42,28.31,63.07-9.45,1.1-17.79.28-25.83-2.66-21.89-8-33.44-24.95-37.59-46.73-5.59-29.27,6.17-54.25,21.53-78l17.77,32.44,2-.59c3.77-8.1,4.82-16.58,4.21-25.67-.77-11.3-2.24-22.94-.43-33.94C68.5,40.79,92.28,16.89,115.44,12.05Z"/></svg>