<svg id="Capa_1" data-name="Capa 1" xmlns="http://www.w3.org/2000/svg" viewBox="0 0 243.93 234.63"><defs><style>.cls-1{fill:#8fd1e3;}</style></defs><path class="cls-1" d="M142.72,149.59l-12.08,4.89c0,1.78,0,4,0,6.23,0,8.18,0,16.36.17,24.54.18,9.09,3.17,17,9.92,23.39a59.34,59.34,0,0,1,5.05,5.23,6.06,6.06,0,0,1-.38,8.51,6.16,6.16,0,0,1-8.71-.32c-2.85-2.85-5.57-5.83-9-9.4v4.5c0,3,.07,5.93,0,8.9-.07,3.22-1.92,5.05-5.21,5.3s-5.62-1.39-5.93-4.46-.16-6.09-.19-9.14c0-1.48,0-3,0-4-2.91,2.73-5.93,5.65-9.05,8.45-2.8,2.51-6.29,2.5-8.73.12s-2.58-5.91-.27-8.78c.67-.83,1.5-1.54,2.24-2.32,1.91-2,4-3.93,5.7-6.1a32.13,32.13,0,0,0,7.31-20.39c0-10.15,0-20.29,0-30.36l-12.31-5.11c-4.47,4.9-9.25,10-13.83,15.26a6.44,6.44,0,0,0-1.24,4c0,5.39.14,10.78.36,16.17a5,5,0,0,0,1.08,2.84C90.5,191,91,194,89.07,197.11a7.65,7.65,0,0,1-8.32,3.07c-2.86-.71-5.4-4.2-5.47-7.91-.1-5.84,0-11.69,0-18-2.48,2.64-4.81,5-7,7.53a3.88,3.88,0,0,0-.36,2.28c0,6.21.15,12.41,0,18.61a5.53,5.53,0,0,1-8.24,4.91c-2.27-1.13-3.1-3.13-3.1-5.55,0-3.5,0-7,0-10.84-2.12,2.28-4.08,4.52-6.18,6.63-3.3,3.32-7.87,2.74-10.23-1.21-1.55-2.6-1.26-4.86,1-7.05,2.44-2.38,4.92-4.72,7.75-7.43-1.09-.11-1.72-.23-2.36-.24-3.23,0-6.47,0-9.71,0-5.4,0-7.56-1.51-7.58-5.33,0-4,2.11-5.49,7.7-5.48,6.57,0,13.13.14,19.69,0a7.28,7.28,0,0,0,4.14-1.74c2.08-1.76,3.86-3.89,6.2-6.31-6.16,0-11.69-.07-17.22,0-3.1.05-6-.16-7.54-3.4a6.19,6.19,0,0,1,.79-7.06c2.32-2.89,6-4.46,8.87-2.82,6.59,3.73,13.5,1.78,20.23,2.51,3.6.39,6.14-.88,8.48-3.46,2.9-3.2,6-6.19,9.13-9.17,1.12-1.07,1.06-1.89.47-3.25-1.21-2.77-2-5.72-3.17-8.52a2.72,2.72,0,0,0-1.9-1.51c-9.17-.08-18.37-.54-27.49.13-9.61.7-18.06,4.52-24,12.66a21.35,21.35,0,0,1-3.42,3.8,6.29,6.29,0,0,1-8.77-.39c-2.36-2.5-2.3-6,.22-8.74,3-3.18,6-6.3,9.16-9.61h-15c-4.36,0-6.91-2.08-7-5.71s2.73-6,7.07-6.07c5,0,10.05,0,15.07,0l.8-.85a14,14,0,0,1-2.4-1.43c-2.72-2.48-5.49-4.93-8-7.61s-2.16-5.46.25-7.91a5.8,5.8,0,0,1,8-.55A40.66,40.66,0,0,1,35,99.43c5.74,7.2,13.72,10.33,22.35,11,9.64.75,19.38.17,28.72.17,1.78-4.31,3.44-8.36,5.19-12.63-4.22-3.92-8.57-8.06-13-12.06A5.26,5.26,0,0,0,75,84.83c-5.48-.11-11-.18-16.44,0-1.45.06-2.94,1-4.25,1.87a8.33,8.33,0,0,1-8.47.51,6.92,6.92,0,0,1-4.15-6.44,6.55,6.55,0,0,1,6.65-6.92c5.21-.06,10.43,0,15.64,0h3.12c-2.94-3-5.43-5.63-8.08-8.1-.53-.48-1.67-.41-2.53-.41-7,0-14,.13-21-.09a8.67,8.67,0,0,1-5-2c-1.68-1.44-1.75-3.69-.82-5.74a4.75,4.75,0,0,1,4.68-3c4.94,0,9.88,0,15.35,0-.66-.84-1-1.37-1.45-1.81-2.46-2.5-5-4.9-7.38-7.49a5.77,5.77,0,0,1,.2-7.83,5.64,5.64,0,0,1,8-.39c1.36,1.16,2.55,2.53,3.8,3.83s2.3,2.47,3.91,4.2c0-3,0-5.47,0-7.91,0-1.62-.07-3.25.06-4.85.26-3,2.56-4.92,5.72-4.83s5.14,1.86,5.22,5c.15,6.38.29,12.76.12,19.14a8.2,8.2,0,0,0,2.79,6.89c1.44,1.28,2.72,2.75,4.57,4.66,0-6.68-.1-12.66.06-18.63a14.14,14.14,0,0,1,1.32-5.66c1.38-2.84,4-4.06,7.14-3.75A6.43,6.43,0,0,1,89.46,39c1.27,2.92.68,5.48-1.35,8a7.48,7.48,0,0,0-1.64,4.18c-.19,5.84-.22,11.69,0,17.53a8.72,8.72,0,0,0,1.78,5.1c4.14,4.83,8.6,9.4,12.6,13.7,4.14-1.51,7.91-2.84,11.63-4.29.58-.23,1.35-1,1.34-1.55-.08-12,.11-23.93-.55-35.85-.48-8.72-5.14-15.73-11.55-21.56a39.65,39.65,0,0,1-3.41-3.45c-2.26-2.63-2-5.94.69-8.37a5.74,5.74,0,0,1,8.2.1c3,2.84,5.92,5.7,9.12,8.78,0-4.17,0-8.24,0-12.31,0-3.64,2-5.6,5.38-5.73,4.08-.16,6,1.64,6.06,5.76s0,8.38,0,13.25c3.36-3.56,6.23-6.7,9.22-9.73a5.59,5.59,0,0,1,6.94-.92c2.31,1.32,3.57,3.38,3.09,6a8.27,8.27,0,0,1-1.79,3.51A44.13,44.13,0,0,1,141,25.64c-7.34,6.91-10.26,15.59-10.26,25.45s.05,19.78,0,29.66c0,1.76.64,2.41,2.28,2.94,3.21,1.06,6.29,2.49,10.14,4,4.4-5.06,9.21-10.5,13.87-16a5.41,5.41,0,0,0,.86-3.26q.07-9.17-.12-18.34a4.5,4.5,0,0,0-.9-2.61c-2.88-3.47-3.39-6.23-1.5-9.29a6.83,6.83,0,0,1,8-2.88,8.56,8.56,0,0,1,5.79,8c.05,5.94,0,11.87,0,17.8,0,.51.05,1,.1,2.14,2.4-2.79,4.49-5.08,6.39-7.53a4.53,4.53,0,0,0,.47-2.54c0-6.57,0-13.13,0-19.69,0-3.91,2.62-6.22,6.39-6,3,.21,4.82,2,4.88,5,.08,3.95,0,7.9,0,12.61l3.51-3.76c1.22-1.31,2.39-2.68,3.67-3.94a6,6,0,0,1,8.65-.21,6.17,6.17,0,0,1-.12,8.53c-2.63,2.81-5.38,5.51-8.54,8.74h5.53c3,0,5.93,0,8.9,0,3.68,0,5.93,1.88,6,5,.11,3.31-2.33,5.79-6,5.84-6.47.09-12.95.19-19.42,0A8.1,8.1,0,0,0,182.93,68c-1.82,1.94-3.86,3.68-6.15,5.84,5.8,0,11.14,0,16.47,0a13.69,13.69,0,0,1,5.22.74c3.19,1.45,4.38,4.51,3.56,7.87a7.29,7.29,0,0,1-6.74,5.6,10.31,10.31,0,0,1-6.81-2,7.71,7.71,0,0,0-3.89-1.27q-7.54-.19-15.09,0a6.14,6.14,0,0,0-3.64,1.29c-4.43,3.92-8.71,8-12.89,11.92l5,12.62h2.42c7.73,0,15.46,0,23.19-.07,9-.13,16.89-3,23.34-9.43,1.85-1.85,3.68-3.7,5.57-5.5,3.56-3.39,7.65-3.82,10.2-1.11,2.89,3.07,2.18,6.85-2,10.42q-1.94,1.67-3.84,3.39c-1.32,1.2-2.61,2.44-4.19,3.92a15.44,15.44,0,0,0,1.92.26c4.59,0,9.17-.08,13.75-.08,3.9,0,6.67,2.42,6.71,5.82,0,3.58-2.43,5.88-6.47,5.91-5.19,0-10.38,0-16.37,0,3.67,3.46,6.73,6.27,9.7,9.17s3.29,6.73.63,9.26-6.92,2.18-9.63-.64c-1.86-1.95-3.68-3.94-5.54-5.89-6.45-6.76-14.51-9.7-23.69-9.79-8-.08-16,0-24-.08-1.67,0-2.21.46-2.67,2.11-.84,3-2.3,5.83-3.31,8.8a3.18,3.18,0,0,0,.34,2.7c3.5,3.61,7,7.17,10.82,10.5a7.89,7.89,0,0,0,4.53,1.75c4.67.23,9.35,0,14,.13a10.23,10.23,0,0,0,6.05-1.62c4.61-2.91,9.92-1.42,12.18,3.14s-.58,9.22-5.62,9.24c-5.4,0-10.79,0-16.18,0-.85,0-1.7.09-3,.16,2.79,2.67,5.17,5.07,7.72,7.27a4.54,4.54,0,0,0,2.77.6c7.19,0,14.38,0,21.57,0,3.8,0,5.94,2,6,5.39s-2.29,5.48-6.15,5.46H195.39c2.48,2.55,4.72,5,7.07,7.24,2,2,3.06,4.2,1.89,7a6.16,6.16,0,0,1-6.66,3.52,7.66,7.66,0,0,1-3.68-1.82c-2.31-2-4.41-4.13-6.71-6.32,0,3.47,0,6.93,0,10.39,0,4-1.95,6.28-5.4,6.29s-5.81-2.54-5.82-6.35c0-6,.1-12.05,0-18.07a6.39,6.39,0,0,0-1.31-3.51c-1.58-2-3.44-3.79-5.62-6.13,0,6.22.19,11.85-.1,17.45a11.84,11.84,0,0,1-2.12,6.15,7,7,0,0,1-10.08,1,7.19,7.19,0,0,1-.78-10.16,6.88,6.88,0,0,0,1.81-5.33c-.11-4.85,0-9.7-.08-14.56a6.28,6.28,0,0,0-1.16-3.7C152,159.68,147.18,154.5,142.72,149.59Zm-21-55.31A24.38,24.38,0,0,0,97.9,120.14c.57,13.12,11.75,23.06,25.35,22.53a23.94,23.94,0,0,0,23.15-24.52C145.94,104.82,134.55,93.79,121.76,94.28Z"/></svg>