<svg id="Capa_1" data-name="Capa 1" xmlns="http://www.w3.org/2000/svg" viewBox="0 0 420.71 349.54"><defs><style>.cls-1{fill:#0e4655;}.cls-2{fill:#f24405;}</style></defs><path class="cls-1" d="M184,50.3a58.32,58.32,0,0,0-16.19,7.41,59,59,0,0,0-19.09,20.62c-2.52,4.55-6.52,11.77-7,22-.76,16.44,8.19,28,10.57,31a49.3,49.3,0,0,0,14,11.93c3.49,2,15.13,8.46,30.34,6.31a41.61,41.61,0,0,0,19.77-8,37,37,0,0,0,9.55-10.74,30.05,30.05,0,0,0,3.62-10,20.86,20.86,0,0,0,.06-7.42,19.56,19.56,0,0,0-4-8.69,20.7,20.7,0,0,1,3.26,13,20.36,20.36,0,0,1-4.48,10.8c-5.67,7.14-14.24,8.26-17.06,8.63-11.49,1.51-20.27-4.2-23.14-6.07-10-6.49-14-15.67-16.17-20.71A50.78,50.78,0,0,1,164,81.49a47.71,47.71,0,0,1,6.73-17.64A46.51,46.51,0,0,1,184,50.3Z"/><path class="cls-1" d="M148,95.38c.84,6.34,2.45,17.44,10.73,28.29a52.85,52.85,0,0,0,16.54,14.15c4.8,2.63,13.47,7.37,25.05,6.3a34.27,34.27,0,0,0,18.41-6.81,33.33,33.33,0,0,0,9.61-11.88,27.17,27.17,0,0,0,1.17-4.57,20.86,20.86,0,0,0,.06-7.42,19.56,19.56,0,0,0-4-8.69,20.7,20.7,0,0,1,3.26,13,20.36,20.36,0,0,1-4.48,10.8c-5.67,7.14-14.24,8.26-17.06,8.63-11.49,1.51-20.27-4.2-23.14-6.07-10-6.49-14-15.67-16.17-20.71A50.78,50.78,0,0,1,164,81.49a47.71,47.71,0,0,1,6.73-17.64A46.51,46.51,0,0,1,184,50.3a58.32,58.32,0,0,0-16.19,7.41,59,59,0,0,0-19.09,20.62c-.31.55-.63,1.14-1,1.77A67.69,67.69,0,0,0,148,95.38Z"/><path class="cls-1" d="M152.25,131.34a49.3,49.3,0,0,0,14,11.93c3.49,2,15.13,8.46,30.34,6.31a41.61,41.61,0,0,0,19.77-8,37,37,0,0,0,9.55-10.74,33.39,33.39,0,0,0,2.45-5.4,33.33,33.33,0,0,1-9.61,11.88,34.27,34.27,0,0,1-18.41,6.81c-11.58,1.07-20.25-3.67-25.05-6.3a52.85,52.85,0,0,1-16.54-14.15c-8.28-10.85-9.89-22-10.73-28.29a67.69,67.69,0,0,1-.29-15.28,45.84,45.84,0,0,0-6,20.22C140.92,116.76,149.87,128.36,152.25,131.34Z"/><path class="cls-2" d="M190.14,178c6.34-.84,17.44-2.46,28.29-10.74a52.78,52.78,0,0,0,14.15-16.53c2.63-4.81,7.37-13.47,6.31-25.06a34.25,34.25,0,0,0-6.82-18.4,33.22,33.22,0,0,0-11.88-9.61,27.38,27.38,0,0,0-4.57-1.18,21,21,0,0,0-7.41-.06,19.66,19.66,0,0,0-8.7,4,20.57,20.57,0,0,1,13-3.26,20.33,20.33,0,0,1,10.8,4.47c7.14,5.68,8.26,14.24,8.63,17.07,1.51,11.48-4.2,20.26-6.07,23.14-6.48,10-15.67,14-20.71,16.17a50.78,50.78,0,0,1-28.95,3.94,47.89,47.89,0,0,1-17.64-6.73A46.89,46.89,0,0,1,145.06,142a58.59,58.59,0,0,0,28,35.28l1.77,1A68.28,68.28,0,0,0,190.14,178Z"/><path class="cls-2" d="M226.1,173.7a49.24,49.24,0,0,0,11.93-14c2-3.48,8.46-15.12,6.31-30.34a41.64,41.64,0,0,0-8-19.77,36.68,36.68,0,0,0-10.74-9.54,31.74,31.74,0,0,0-5.4-2.45,33.22,33.22,0,0,1,11.88,9.61,34.25,34.25,0,0,1,6.82,18.4c1.06,11.59-3.68,20.25-6.31,25.06a52.78,52.78,0,0,1-14.15,16.53c-10.85,8.28-22,9.9-28.29,10.74a68.28,68.28,0,0,1-15.28.29,46,46,0,0,0,20.22,6C211.52,185,223.12,176.07,226.1,173.7Z"/><path class="cls-1" d="M272.72,135.81c-.84-6.34-2.46-17.44-10.74-28.3a52.92,52.92,0,0,0-16.53-14.14C240.64,90.74,232,86,220.39,87.06A34.25,34.25,0,0,0,202,93.88a33.22,33.22,0,0,0-9.61,11.88,25.71,25.71,0,0,0-1.17,4.57,20.76,20.76,0,0,0-.07,7.41,19.67,19.67,0,0,0,4,8.69,20.61,20.61,0,0,1-3.26-13,20.37,20.37,0,0,1,4.47-10.8c5.68-7.13,14.24-8.26,17.07-8.63,11.48-1.51,20.26,4.21,23.14,6.08,10,6.48,14,15.67,16.17,20.7a50.82,50.82,0,0,1,3.94,29A48,48,0,0,1,250,167.34a47,47,0,0,1-13.21,13.55,58.57,58.57,0,0,0,35.28-28l1-1.76A68.27,68.27,0,0,0,272.72,135.81Z"/><path class="cls-1" d="M268.46,99.84a49.56,49.56,0,0,0-14-11.93c-3.48-2-15.12-8.46-30.34-6.3a41.54,41.54,0,0,0-19.77,8,36.55,36.55,0,0,0-9.54,10.74,31.74,31.74,0,0,0-2.45,5.4A33.22,33.22,0,0,1,202,93.88a34.25,34.25,0,0,1,18.4-6.82C232,86,240.64,90.74,245.45,93.37A52.92,52.92,0,0,1,262,107.51c8.28,10.86,9.9,22,10.74,28.3a68.27,68.27,0,0,1,.29,15.28,46,46,0,0,0,6-20.23C279.78,114.42,270.83,102.82,268.46,99.84Z"/><path class="cls-2" d="M230.57,53.23c-6.34.84-17.44,2.45-28.3,10.73A53,53,0,0,0,188.13,80.5c-2.63,4.8-7.38,13.47-6.31,25A34.31,34.31,0,0,0,188.64,124a33.33,33.33,0,0,0,11.88,9.61,26.7,26.7,0,0,0,4.57,1.17,20.8,20.8,0,0,0,7.41.06,19.67,19.67,0,0,0,8.69-4,20.68,20.68,0,0,1-13,3.26,20.36,20.36,0,0,1-10.8-4.48c-7.13-5.67-8.26-14.24-8.63-17.06-1.5-11.49,4.21-20.27,6.08-23.14,6.48-10,15.67-14,20.7-16.17a50.82,50.82,0,0,1,29-3.94A47.79,47.79,0,0,1,262.1,76a46.77,46.77,0,0,1,13.55,13.21,58.57,58.57,0,0,0-28-35.28l-1.76-1A67.68,67.68,0,0,0,230.57,53.23Z"/><path class="cls-2" d="M194.6,57.49a49.63,49.63,0,0,0-11.93,14c-2,3.48-8.45,15.13-6.3,30.34a41.54,41.54,0,0,0,8,19.77,36.82,36.82,0,0,0,10.74,9.55,33.39,33.39,0,0,0,5.4,2.45A33.33,33.33,0,0,1,188.64,124a34.31,34.31,0,0,1-6.82-18.41c-1.07-11.58,3.68-20.25,6.31-25A53,53,0,0,1,202.27,64c10.86-8.28,22-9.89,28.3-10.73a67.68,67.68,0,0,1,15.28-.29,45.89,45.89,0,0,0-20.23-6C209.18,46.16,197.58,55.11,194.6,57.49Z"/><path class="cls-1" d="M74.77,302.67H25.6l27.11-50.81H25.6V239.15H74.77L47.75,290h27Z"/><path class="cls-1" d="M113.32,302.67H100.65V251.86H81.56V239.15h50.81v12.71H113.32Z"/><path class="cls-1" d="M219.28,295.06a31.67,31.67,0,0,1-29,6.48,32,32,0,0,1-22.2-22.2,31.9,31.9,0,0,1,0-16.83,32.09,32.09,0,0,1,14.63-19,31.72,31.72,0,0,1,7.57-3.2,30.87,30.87,0,0,1,8.41-1.14,31.62,31.62,0,0,1,11,1.95,30.59,30.59,0,0,1,9.58,5.67l-6.5,10.69a18.39,18.39,0,0,0-6.37-4.47,19.55,19.55,0,0,0-7.7-1.56,18.91,18.91,0,0,0-7.62,1.54,20,20,0,0,0-6.2,4.17,19.5,19.5,0,0,0-4.19,6.2,18.9,18.9,0,0,0-1.54,7.59,18.61,18.61,0,0,0,1.54,7.55,20,20,0,0,0,4.19,6.18,19.68,19.68,0,0,0,6.2,4.19,18.91,18.91,0,0,0,7.62,1.54,19.55,19.55,0,0,0,7.7-1.56,18.39,18.39,0,0,0,6.37-4.47Z"/><path class="cls-1" d="M241.28,302.67H229.52v-64h11.76Z"/><path class="cls-2" d="M266.32,243.09a5.54,5.54,0,0,1-.46,2.26,5.86,5.86,0,0,1-1.26,1.83,6.12,6.12,0,0,1-1.86,1.24,5.86,5.86,0,0,1-4.55,0,5.91,5.91,0,0,1-1.84-1.24,5.81,5.81,0,0,1-1.24-1.83,5.76,5.76,0,0,1,0-4.51,5.74,5.74,0,0,1,1.24-1.84,5.91,5.91,0,0,1,1.84-1.24,5.86,5.86,0,0,1,4.55,0A6.12,6.12,0,0,1,264.6,239a5.79,5.79,0,0,1,1.26,1.84A5.59,5.59,0,0,1,266.32,243.09Z"/><rect class="cls-1" x="254.56" y="256.86" width="11.76" height="45.81"/><path class="cls-1" d="M337.86,302.67H326.22V273.58a5.84,5.84,0,0,0-5.86-5.86,5.61,5.61,0,0,0-4.08,1.72,5.86,5.86,0,0,0-1.24,1.88,5.77,5.77,0,0,0-.45,2.26v29.09H302.91V273.58a5.84,5.84,0,0,0-5.86-5.86,5.57,5.57,0,0,0-2.24.45,5.47,5.47,0,0,0-1.84,1.27,5.82,5.82,0,0,0-1.69,4.14v29.09H279.6V256.86h2.82l3.17,3.51a18.76,18.76,0,0,1,5.37-3.19,16.62,16.62,0,0,1,6.09-1.13,17.23,17.23,0,0,1,6.27,1.19,12.82,12.82,0,0,1,5.37,4.15,11.92,11.92,0,0,1,2.43-2.48,14,14,0,0,1,2.89-1.67,14.3,14.3,0,0,1,3.14-.91,18.66,18.66,0,0,1,3.21-.28,17.17,17.17,0,0,1,6.83,1.36,17.93,17.93,0,0,1,5.56,3.75,17.65,17.65,0,0,1,3.74,5.58,17.3,17.3,0,0,1,1.37,6.84Z"/><path class="cls-1" d="M395.11,301.81h-2.83l-4.53-6.28a37.09,37.09,0,0,1-3.53,2.8,26.28,26.28,0,0,1-3.91,2.26,23.41,23.41,0,0,1-4.22,1.52,17.54,17.54,0,0,1-4.38.56,25.11,25.11,0,0,1-9.09-1.63,21.54,21.54,0,0,1-7.45-4.72,22.31,22.31,0,0,1-5-7.59,26.77,26.77,0,0,1-1.84-10.23,25.47,25.47,0,0,1,1.84-9.81,23.51,23.51,0,0,1,5-7.68,22.67,22.67,0,0,1,7.45-5,23.24,23.24,0,0,1,9.09-1.78,17.29,17.29,0,0,1,4.4.56,22.42,22.42,0,0,1,4.24,1.54,26,26,0,0,1,3.91,2.3,33.5,33.5,0,0,1,3.49,2.87l4.53-5.43h2.83ZM383.34,278.5a12,12,0,0,0-.92-4.64,13.21,13.21,0,0,0-2.5-4,12.5,12.5,0,0,0-3.7-2.78,10.16,10.16,0,0,0-4.51-1.05,12.59,12.59,0,0,0-4.52.82,10.28,10.28,0,0,0-3.67,2.39,11.29,11.29,0,0,0-2.46,3.92,16.2,16.2,0,0,0,0,10.65,11.25,11.25,0,0,0,2.46,3.91,10.17,10.17,0,0,0,3.67,2.4,12.58,12.58,0,0,0,4.52.81,10,10,0,0,0,4.51-1.05,12.33,12.33,0,0,0,3.7-2.78,13.09,13.09,0,0,0,2.5-4A12,12,0,0,0,383.34,278.5Z"/></svg>