<?xml version="1.0" encoding="UTF-8"?>
<svg id="Capa_1" data-name="Capa 1" xmlns="http://www.w3.org/2000/svg" viewBox="0 0 1115.85 286.66">
  <defs>
    <style>
      .cls-1 {
        fill: #f24405;
      }

      .cls-1, .cls-2 {
        stroke-width: 0px;
      }

      .cls-2 {
        fill: #0e4655;
      }
    </style>
  </defs>
  <g>
    <path class="cls-2" d="M497.97,205.31h-93.23l51.4-96.34h-51.4v-24.1h93.23l-51.24,96.34h51.24v24.1Z"/>
    <path class="cls-2" d="M571.07,205.31h-24.02v-96.34h-36.2v-24.1h96.34v24.1h-36.12v96.34Z"/>
    <path class="cls-2" d="M772,190.87c-5.41,4.65-11.47,8.22-18.17,10.71-6.71,2.49-13.66,3.73-20.85,3.73-5.52,0-10.83-.71-15.94-2.15-5.11-1.43-9.9-3.46-14.36-6.08-4.46-2.62-8.53-5.77-12.21-9.45-3.68-3.68-6.83-7.75-9.45-12.21-2.62-4.46-4.65-9.25-6.08-14.36-1.43-5.11-2.15-10.42-2.15-15.94s.72-10.84,2.15-15.98c1.43-5.14,3.46-9.94,6.08-14.4,2.62-4.46,5.77-8.53,9.45-12.21,3.68-3.68,7.75-6.83,12.21-9.45,4.46-2.62,9.25-4.65,14.36-6.08,5.11-1.43,10.42-2.15,15.94-2.15,7.19,0,14.14,1.23,20.85,3.69,6.7,2.46,12.76,6.04,18.17,10.75l-12.33,20.27c-3.41-3.68-7.44-6.5-12.08-8.47-4.65-1.97-9.52-2.96-14.6-2.96s-9.95.98-14.44,2.92c-4.49,1.94-8.41,4.58-11.76,7.91-3.35,3.33-6,7.25-7.95,11.76-1.95,4.52-2.92,9.32-2.92,14.4s.97,9.85,2.92,14.31c1.95,4.46,4.6,8.37,7.95,11.72,3.35,3.35,7.27,6,11.76,7.95,4.49,1.95,9.3,2.92,14.44,2.92s9.95-.99,14.6-2.96c4.65-1.97,8.68-4.8,12.08-8.48l12.33,20.28Z"/>
    <path class="cls-2" d="M813.72,205.31h-22.3v-121.42h22.3v121.42Z"/>
    <path class="cls-1" d="M861.2,92.33c0,1.53-.29,2.96-.87,4.28-.59,1.33-1.38,2.48-2.38,3.47-1.01.99-2.18,1.77-3.53,2.35-1.35.58-2.79.88-4.31.88s-2.97-.29-4.31-.88c-1.35-.58-2.51-1.37-3.5-2.35-.99-.98-1.77-2.14-2.35-3.47-.58-1.33-.87-2.75-.87-4.28s.29-2.9.87-4.25c.58-1.35,1.37-2.51,2.35-3.5s2.15-1.77,3.5-2.35c1.35-.58,2.78-.88,4.31-.88s2.97.29,4.31.88c1.35.58,2.52,1.37,3.53,2.35,1,.99,1.8,2.15,2.38,3.5.58,1.35.87,2.76.87,4.25Z"/>
    <rect class="cls-2" x="838.89" y="118.44" width="22.3" height="86.87"/>
    <path class="cls-2" d="M996.84,205.31h-22.06v-55.15c0-1.51-.28-2.95-.85-4.3s-1.37-2.54-2.39-3.57c-1.03-1.03-2.22-1.83-3.57-2.39-1.35-.57-2.78-.85-4.3-.85s-2.93.28-4.26.85-2.49,1.37-3.49,2.39c-1,1.02-1.79,2.22-2.35,3.57-.57,1.35-.85,2.78-.85,4.3v55.15h-22.14v-55.15c0-1.51-.28-2.95-.85-4.3-.57-1.35-1.37-2.54-2.39-3.57-1.03-1.03-2.22-1.83-3.57-2.39-1.35-.57-2.79-.85-4.3-.85s-2.94.28-4.26.85c-1.33.57-2.49,1.37-3.49,2.39-1,1.02-1.79,2.22-2.35,3.57-.57,1.35-.85,2.78-.85,4.3v55.15h-22.14v-86.87h5.35l6,6.65c3.08-2.6,6.48-4.61,10.18-6.04,3.7-1.43,7.56-2.15,11.56-2.15s8.01.76,11.88,2.27c3.87,1.51,7.26,4.14,10.18,7.87,1.35-1.84,2.89-3.41,4.62-4.7,1.73-1.3,3.55-2.35,5.48-3.16,1.92-.81,3.9-1.39,5.96-1.74,2.05-.35,4.08-.53,6.08-.53,4.6,0,8.91.87,12.94,2.6,4.03,1.73,7.54,4.1,10.54,7.1,3,3,5.36,6.53,7.1,10.58,1.73,4.06,2.6,8.38,2.6,12.98v55.15Z"/>
    <path class="cls-2" d="M1105.4,203.69h-5.36l-8.6-11.92c-2.11,1.89-4.34,3.66-6.69,5.31-2.35,1.65-4.83,3.08-7.42,4.3-2.6,1.22-5.26,2.18-7.99,2.88-2.73.7-5.51,1.05-8.32,1.05-6.11,0-11.85-1.03-17.23-3.08-5.38-2.05-10.08-5.04-14.11-8.96-4.03-3.92-7.2-8.72-9.53-14.4-2.32-5.68-3.49-12.14-3.49-19.39,0-6.76,1.16-12.96,3.49-18.61,2.32-5.65,5.5-10.5,9.53-14.56,4.03-4.06,8.73-7.2,14.11-9.45,5.38-2.25,11.12-3.37,17.23-3.37,2.81,0,5.6.35,8.36,1.05,2.76.7,5.44,1.68,8.03,2.92,2.6,1.24,5.07,2.7,7.42,4.38,2.35,1.68,4.56,3.49,6.61,5.44l8.6-10.3h5.36v86.7ZM1083.1,159.48c0-3.03-.58-5.96-1.75-8.8-1.16-2.84-2.74-5.35-4.75-7.54-2-2.19-4.34-3.95-7.02-5.27-2.67-1.32-5.53-1.99-8.56-1.99s-5.88.52-8.56,1.54c-2.67,1.03-5,2.54-6.97,4.54s-3.53,4.47-4.67,7.42c-1.13,2.95-1.7,6.31-1.7,10.1s.57,7.15,1.7,10.1c1.14,2.95,2.69,5.42,4.67,7.42,1.97,2,4.3,3.52,6.97,4.54,2.68,1.03,5.53,1.54,8.56,1.54s5.89-.66,8.56-1.99c2.68-1.32,5.02-3.08,7.02-5.27,2-2.19,3.58-4.7,4.75-7.55,1.16-2.84,1.75-5.77,1.75-8.8Z"/>
  </g>
  <g>
    <path class="cls-2" d="M173.1,139.26c-.37-1.99-.88-3.84-1.49-5.53-1.81-5.08-4.4-8.78-6.15-10.95,1.88,2.9,7.38,12.18,6.18,24.72-.13,1.37-.33,2.68-.59,3.93-.44,2.17-1.07,4.11-1.76,5.9-.23.6-.46,1.17-.7,1.72-1.13,2.57-2.38,4.7-3.46,6.28-.4.59-.78,1.1-1.11,1.55-.33.44-.63.81-.86,1.11-.67.85-1.37,1.65-2.08,2.4-2.14,2.28-4.43,4.17-6.77,5.76-1.56,1.06-3.14,1.97-4.71,2.77-7.86,3.99-15.45,4.99-18.8,5.43-21.78,2.86-38.43-7.97-43.87-11.51-7.09-4.61-12.59-9.94-16.91-15.31-1.44-1.79-2.75-3.58-3.95-5.35-.6-.89-1.17-1.77-1.71-2.64-1.63-2.62-3.01-5.15-4.21-7.53-1.59-3.17-2.85-6.05-3.89-8.44-1.98-4.54-6.16-14.43-7.92-27.72-1.05-7.97-1.24-17.18.45-27.19.72-4.29,1.71-8.25,2.83-11.86.56-1.8,1.15-3.51,1.75-5.13,1.21-3.23,2.49-6.08,3.69-8.51,1.81-3.64,3.46-6.34,4.49-7.96,8.54-13.37,18.78-21.46,25.05-25.69-7.69,2.19-18.84,6.25-30.7,14.06-5.12,3.37-9.64,6.95-13.61,10.57-6.96,6.33-12.26,12.77-16.18,18.33-.56.79-1.09,1.57-1.6,2.33-1.01,1.51-1.91,2.94-2.71,4.26-.8,1.32-1.5,2.54-2.1,3.62-.58,1.04-1.2,2.16-1.84,3.35,0,0,0,0,0,.01-.14.25-.28.53-.41.79-.5.94-1,1.9-1.52,2.93-.23.45-.45.94-.68,1.4-.44.89-.87,1.8-1.3,2.76-.26.57-.5,1.16-.76,1.75-.4.93-.79,1.88-1.18,2.87-.25.65-.5,1.32-.74,2-.37,1.01-.71,2.04-1.05,3.1-.23.72-.46,1.44-.67,2.19-.32,1.12-.61,2.28-.9,3.45-.18.75-.37,1.49-.54,2.27-.28,1.32-.5,2.7-.72,4.09-.11.7-.24,1.37-.34,2.09-.28,2.14-.49,4.34-.6,6.63-.09,1.95-.11,3.86-.06,5.74.56,22.5,10.39,39.59,16.46,48.23,1.52,2.16,2.8,3.8,3.64,4.86,2.42,3.04,7.91,9.54,16.66,16.13,2.92,2.2,6.2,4.4,9.84,6.5,6.6,3.79,28.68,16.04,57.53,11.96,5.85-.83,21.98-3.31,37.49-15.19,1.41-1.08,2.73-2.17,3.96-3.26,8.62-7.62,13.02-15.12,14.14-17.1.61-1.07,1.15-2.11,1.65-3.14.18-.35.33-.69.49-1.04.31-.65.6-1.3.87-1.93.17-.4.33-.79.49-1.18.22-.54.42-1.06.61-1.57.15-.4.3-.8.44-1.18.02-.07.06-.15.08-.22.21-.61.4-1.19.57-1.74.09-.28.17-.54.24-.81.15-.49.28-.96.4-1.4.07-.28.14-.54.21-.8.11-.44.21-.84.29-1.22.04-.18.08-.35.11-.51.09-.43.17-.8.23-1.13.02-.11.03-.19.05-.29.05-.3.1-.57.13-.75.13-.85.27-1.78.4-2.79s.22-2.11.27-3.28c.1-2.35,0-5.01-.55-7.99Z"/>
    <path class="cls-1" d="M201.12,169.48c-.83-5.85-3.31-21.98-15.19-37.49-8.63-11.26-18.1-16.82-20.36-18.1-3.76-2.13-7.27-3.61-10.24-4.64-4.39-1.52-7.61-2.06-8.66-2.23-3.4-.53-8.11-1.22-14.06-.12-7.97,1.47-13.58,5.31-16.48,7.64,2.9-1.88,12.18-7.38,24.72-6.18,10.95,1.05,18.12,6.6,20.48,8.48,13.53,10.77,15.66,27,16.36,32.36,2.86,21.78-7.97,38.43-11.51,43.87-12.3,18.9-29.72,26.5-39.27,30.66-7.27,3.17-28.21,11.97-54.9,7.47-17.16-2.89-29.12-10-33.45-12.77-13.37-8.54-21.46-18.78-25.69-25.05,2.19,7.69,6.25,18.84,14.06,30.7,13.47,20.47,30.42,31.38,39.11,36.2,1.04.58,2.16,1.19,3.35,1.84,8.66,4.67,21.3,10.63,38.35,11.42,31.18,1.44,53.17-15.54,58.82-20.04,4.05-3.23,14.25-11.92,22.62-26.5,3.79-6.6,16.04-28.68,11.96-57.53Z"/>
    <path class="cls-2" d="M246.85,113.47c-3.23-4.05-11.91-14.25-26.5-22.62-6.6-3.79-28.68-16.04-57.53-11.96-5.85.83-21.98,3.31-37.49,15.19-11.26,8.63-16.81,18.1-18.1,20.36-2.13,3.76-3.61,7.27-4.64,10.25-1.52,4.39-2.06,7.61-2.23,8.66-.53,3.39-1.22,8.11-.12,14.06,1.47,7.97,5.31,13.58,7.64,16.48-1.88-2.9-7.38-12.18-6.18-24.72,1.05-10.94,6.6-18.12,8.48-20.48,10.77-13.53,27-15.66,32.36-16.36,21.78-2.86,38.43,7.97,43.87,11.51,18.9,12.3,26.5,29.72,30.66,39.27,3.17,7.27,11.97,28.21,7.47,54.9-2.89,17.16-10,29.12-12.77,33.45-8.54,13.37-18.78,21.46-25.05,25.69,7.69-2.19,18.84-6.25,30.7-14.06,20.47-13.47,31.38-30.42,36.2-39.11.58-1.04,1.19-2.16,1.84-3.35,4.67-8.66,10.63-21.3,11.42-38.35,1.44-31.18-15.54-53.17-20.04-58.82Z"/>
    <path class="cls-1" d="M246.43,62.56c-13.47-20.47-30.42-31.38-39.11-36.2-1.04-.58-2.16-1.19-3.35-1.84-8.66-4.67-21.3-10.63-38.35-11.42-31.18-1.44-53.17,15.54-58.82,20.04-4.05,3.23-14.25,11.92-22.62,26.5-3.79,6.6-16.04,28.68-11.96,57.53.83,5.85,3.31,21.98,15.19,37.49,8.63,11.26,18.1,16.82,20.36,18.1,3.76,2.13,7.27,3.61,10.24,4.64,4.39,1.52,7.61,2.06,8.66,2.23,3.39.53,8.11,1.22,14.06.12,7.97-1.47,13.58-5.31,16.48-7.64-2.9,1.88-12.18,7.38-24.73,6.18-10.95-1.05-18.12-6.6-20.48-8.48-13.52-10.77-15.66-27-16.36-32.36-2.86-21.78,7.97-38.43,11.51-43.87,12.3-18.9,29.72-26.5,39.27-30.66,7.27-3.17,28.21-11.97,54.9-7.47,17.16,2.89,29.12,10,33.45,12.77,13.37,8.54,21.46,18.78,25.7,25.05-2.19-7.69-6.25-18.84-14.06-30.7Z"/>
    <circle class="cls-1" cx="135.65" cy="144.35" r="14.28"/>
  </g>
</svg>