<?xml version="1.0" encoding="UTF-8"?>
<svg id="Capa_1" data-name="Capa 1" xmlns="http://www.w3.org/2000/svg" viewBox="0 0 595.28 152.16">
  <defs>
    <style>
      .cls-1 {
        fill: #1d1e1c;
      }

      .cls-1, .cls-2, .cls-3 {
        stroke-width: 0px;
      }

      .cls-2 {
        fill: #e74616;
      }

      .cls-3 {
        fill: #0e4655;
      }
    </style>
  </defs>
  <g>
    <g>
      <path class="cls-3" d="M250.44,104.93h-49.41l27.24-51.06h-27.24v-12.77h49.41l-27.15,51.06h27.15v12.77Z"/>
      <path class="cls-3" d="M289.19,104.93h-12.73v-51.06h-19.19v-12.77h51.06v12.77h-19.14v51.06Z"/>
      <path class="cls-3" d="M395.67,97.28c-2.87,2.47-6.08,4.36-9.63,5.67-3.55,1.32-7.24,1.98-11.05,1.98-2.92,0-5.74-.38-8.45-1.14-2.71-.76-5.24-1.83-7.61-3.22s-4.52-3.06-6.47-5.01c-1.95-1.95-3.62-4.11-5.01-6.47s-2.46-4.9-3.22-7.61c-.76-2.71-1.14-5.52-1.14-8.45s.38-5.75,1.14-8.47c.76-2.72,1.83-5.27,3.22-7.63s3.06-4.52,5.01-6.47c1.95-1.95,4.11-3.62,6.47-5.01,2.36-1.39,4.9-2.46,7.61-3.22,2.71-.76,5.52-1.14,8.45-1.14,3.81,0,7.49.65,11.05,1.96,3.55,1.31,6.76,3.2,9.63,5.7l-6.53,10.74c-1.8-1.95-3.94-3.44-6.4-4.49-2.47-1.05-5.04-1.57-7.74-1.57s-5.27.52-7.65,1.55c-2.38,1.03-4.46,2.43-6.23,4.19-1.78,1.76-3.18,3.84-4.21,6.23-1.03,2.39-1.55,4.94-1.55,7.63s.52,5.22,1.55,7.59c1.03,2.36,2.44,4.44,4.21,6.21s3.85,3.18,6.23,4.21c2.38,1.03,4.93,1.55,7.65,1.55s5.27-.52,7.74-1.57c2.46-1.05,4.6-2.54,6.4-4.49l6.53,10.75Z"/>
      <path class="cls-3" d="M417.78,104.93h-11.82V40.58h11.82v64.35Z"/>
      <path class="cls-2" d="M442.95,45.05c0,.81-.15,1.57-.46,2.27-.31.7-.73,1.32-1.26,1.84-.53.52-1.16.94-1.87,1.25-.71.31-1.48.46-2.29.46s-1.57-.16-2.29-.46c-.71-.31-1.33-.72-1.85-1.25-.52-.52-.94-1.14-1.25-1.84-.31-.7-.46-1.46-.46-2.27s.15-1.54.46-2.25.72-1.33,1.25-1.85,1.14-.94,1.85-1.25c.71-.31,1.48-.46,2.29-.46s1.57.16,2.29.46c.71.31,1.34.72,1.87,1.25.53.52.95,1.14,1.26,1.85.31.71.46,1.47.46,2.25Z"/>
      <rect class="cls-3" x="431.12" y="58.89" width="11.82" height="46.04"/>
      <path class="cls-3" d="M514.83,104.93h-11.69v-29.23c0-.8-.15-1.56-.45-2.28s-.72-1.35-1.27-1.89c-.54-.54-1.17-.97-1.89-1.27s-1.48-.45-2.28-.45-1.55.15-2.26.45-1.32.72-1.85,1.27c-.53.54-.95,1.17-1.25,1.89-.3.72-.45,1.48-.45,2.28v29.23h-11.74v-29.23c0-.8-.15-1.56-.45-2.28-.3-.72-.72-1.35-1.27-1.89-.54-.54-1.18-.97-1.89-1.27-.72-.3-1.48-.45-2.28-.45s-1.56.15-2.26.45c-.7.3-1.32.72-1.85,1.27-.53.54-.95,1.17-1.25,1.89-.3.72-.45,1.48-.45,2.28v29.23h-11.74v-46.04h2.84l3.18,3.53c1.63-1.38,3.43-2.44,5.4-3.2,1.96-.76,4-1.14,6.13-1.14s4.25.4,6.3,1.2c2.05.8,3.85,2.19,5.4,4.17.72-.97,1.53-1.81,2.45-2.49.92-.69,1.88-1.25,2.9-1.68,1.02-.43,2.07-.74,3.16-.92,1.09-.19,2.16-.28,3.22-.28,2.44,0,4.72.46,6.86,1.38,2.13.92,4,2.17,5.59,3.76s2.84,3.46,3.76,5.61c.92,2.15,1.38,4.44,1.38,6.88v29.23Z"/>
      <path class="cls-3" d="M572.37,104.07h-2.84l-4.56-6.32c-1.12,1-2.3,1.94-3.55,2.82s-2.56,1.63-3.93,2.28c-1.38.64-2.79,1.15-4.23,1.53-1.45.37-2.92.56-4.41.56-3.24,0-6.28-.54-9.13-1.63-2.85-1.09-5.34-2.67-7.48-4.75-2.13-2.08-3.82-4.62-5.05-7.63-1.23-3.01-1.85-6.43-1.85-10.27,0-3.58.62-6.87,1.85-9.87,1.23-2.99,2.92-5.57,5.05-7.72,2.14-2.15,4.63-3.82,7.48-5.01,2.85-1.19,5.89-1.78,9.13-1.78,1.49,0,2.97.19,4.43.56,1.46.37,2.88.89,4.25,1.55,1.38.66,2.69,1.43,3.93,2.32,1.25.89,2.41,1.85,3.5,2.88l4.56-5.46h2.84v45.95ZM560.55,80.64c0-1.61-.31-3.16-.93-4.66-.62-1.5-1.45-2.84-2.52-4-1.06-1.16-2.3-2.09-3.72-2.79-1.42-.7-2.93-1.05-4.53-1.05s-3.12.27-4.53.82c-1.42.54-2.65,1.35-3.7,2.41s-1.87,2.37-2.47,3.93c-.6,1.56-.9,3.35-.9,5.35s.3,3.79.9,5.35c.6,1.56,1.43,2.87,2.47,3.93,1.05,1.06,2.28,1.86,3.7,2.41,1.42.54,2.93.82,4.53.82s3.12-.35,4.53-1.05c1.42-.7,2.66-1.63,3.72-2.79,1.06-1.16,1.9-2.49,2.52-4,.62-1.5.93-3.06.93-4.66Z"/>
    </g>
    <g>
      <path class="cls-3" d="M111.27,73.92c-.2-1.06-.47-2.03-.79-2.93-.96-2.69-2.33-4.65-3.26-5.81,1,1.54,3.91,6.46,3.28,13.1-.07.73-.18,1.42-.31,2.08-.23,1.15-.57,2.18-.93,3.13-.12.32-.24.62-.37.91-.6,1.36-1.26,2.49-1.83,3.33-.21.31-.41.59-.59.82-.18.24-.33.43-.46.59-.36.45-.72.87-1.1,1.27-1.13,1.21-2.35,2.21-3.59,3.05-.83.56-1.67,1.05-2.5,1.47-4.16,2.11-8.19,2.64-9.97,2.88-11.54,1.52-20.37-4.23-23.25-6.1-3.76-2.44-6.67-5.27-8.96-8.11-.76-.95-1.46-1.9-2.09-2.84-.32-.47-.62-.94-.91-1.4-.86-1.39-1.6-2.73-2.23-3.99-.84-1.68-1.51-3.21-2.06-4.47-1.05-2.41-3.27-7.65-4.2-14.69-.56-4.23-.66-9.1.24-14.41.38-2.27.91-4.37,1.5-6.28.3-.95.61-1.86.93-2.72.64-1.71,1.32-3.22,1.96-4.51.96-1.93,1.83-3.36,2.38-4.22,4.53-7.09,9.95-11.37,13.28-13.62-4.08,1.16-9.99,3.31-16.27,7.45-2.71,1.78-5.11,3.68-7.22,5.6-3.69,3.36-6.49,6.77-8.57,9.71-.3.42-.58.83-.85,1.23-.54.8-1.01,1.56-1.44,2.26-.42.7-.79,1.34-1.11,1.92-.31.55-.63,1.14-.97,1.77,0,0,0,0,0,0-.07.13-.15.28-.22.42-.26.5-.53,1.01-.81,1.55-.12.24-.24.5-.36.74-.23.47-.46.95-.69,1.46-.14.3-.27.62-.4.93-.21.49-.42,1-.62,1.52-.13.35-.26.7-.39,1.06-.19.53-.38,1.08-.56,1.64-.12.38-.24.77-.36,1.16-.17.59-.33,1.21-.48,1.83-.1.4-.2.79-.28,1.2-.15.7-.27,1.43-.38,2.17-.06.37-.13.73-.18,1.11-.15,1.13-.26,2.3-.32,3.52-.05,1.03-.06,2.05-.03,3.04.3,11.92,5.51,20.98,8.72,25.56.8,1.15,1.48,2.01,1.93,2.57,1.28,1.61,4.19,5.05,8.83,8.55,1.55,1.16,3.28,2.33,5.22,3.44,3.5,2.01,15.2,8.5,30.49,6.34,3.1-.44,11.65-1.75,19.87-8.05.75-.57,1.44-1.15,2.1-1.73,4.57-4.04,6.9-8.01,7.49-9.06.32-.57.61-1.12.88-1.66.09-.19.17-.37.26-.55.16-.35.32-.69.46-1.02.09-.21.18-.42.26-.62.12-.28.22-.56.32-.83.08-.21.16-.42.23-.62.01-.04.03-.08.04-.12.11-.32.21-.63.3-.92.05-.15.09-.29.13-.43.08-.26.15-.51.21-.74.04-.15.08-.29.11-.42.06-.23.11-.45.15-.65.02-.09.04-.18.06-.27.05-.23.09-.43.12-.6.01-.06.02-.1.03-.15.03-.16.05-.3.07-.4.07-.45.14-.94.21-1.48s.12-1.12.15-1.74c.05-1.24,0-2.66-.29-4.23Z"/>
      <path class="cls-2" d="M126.12,89.94c-.44-3.1-1.75-11.65-8.05-19.87-4.57-5.97-9.59-8.91-10.79-9.59-1.99-1.13-3.85-1.91-5.43-2.46-2.33-.81-4.03-1.09-4.59-1.18-1.8-.28-4.3-.65-7.45-.06-4.22.78-7.2,2.81-8.74,4.05,1.54-1,6.46-3.91,13.1-3.28,5.8.56,9.6,3.5,10.86,4.5,7.17,5.71,8.3,14.31,8.67,17.15,1.52,11.54-4.23,20.37-6.1,23.25-6.52,10.02-15.75,14.04-20.81,16.25-3.85,1.68-14.95,6.34-29.1,3.96-9.09-1.53-15.43-5.3-17.73-6.77-7.09-4.53-11.37-9.95-13.62-13.27,1.16,4.08,3.31,9.99,7.45,16.27,7.14,10.85,16.12,16.63,20.73,19.18.55.31,1.14.63,1.77.97,4.59,2.48,11.29,5.63,20.32,6.05,16.52.76,28.18-8.24,31.17-10.62,2.15-1.71,7.55-6.31,11.99-14.05,2.01-3.5,8.5-15.2,6.34-30.49Z"/>
      <path class="cls-3" d="M150.36,60.25c-1.71-2.15-6.31-7.55-14.05-11.99-3.5-2.01-15.2-8.5-30.49-6.34-3.1.44-11.65,1.75-19.87,8.05-5.97,4.57-8.91,9.59-9.59,10.79-1.13,1.99-1.91,3.85-2.46,5.43-.81,2.33-1.09,4.03-1.18,4.59-.28,1.8-.65,4.3-.06,7.45.78,4.22,2.81,7.2,4.05,8.74-1-1.54-3.91-6.46-3.28-13.1.56-5.8,3.5-9.6,4.5-10.86,5.71-7.17,14.31-8.3,17.15-8.67,11.54-1.52,20.37,4.23,23.25,6.1,10.02,6.52,14.04,15.75,16.25,20.81,1.68,3.85,6.34,14.95,3.96,29.1-1.53,9.09-5.3,15.43-6.77,17.73-4.53,7.09-9.95,11.37-13.27,13.62,4.08-1.16,9.99-3.31,16.27-7.45,10.85-7.14,16.63-16.12,19.18-20.73.3-.55.63-1.14.97-1.77,2.48-4.59,5.63-11.29,6.05-20.32.76-16.52-8.24-28.18-10.62-31.17Z"/>
      <path class="cls-2" d="M150.14,33.27c-7.14-10.85-16.12-16.63-20.73-19.18-.55-.31-1.14-.63-1.77-.97-4.59-2.48-11.29-5.63-20.32-6.05-16.52-.76-28.18,8.24-31.17,10.62-2.15,1.71-7.55,6.31-11.99,14.05-2.01,3.5-8.5,15.2-6.34,30.49.44,3.1,1.75,11.65,8.05,19.87,4.57,5.97,9.59,8.91,10.79,9.59,1.99,1.13,3.85,1.91,5.43,2.46,2.33.81,4.03,1.09,4.59,1.18,1.8.28,4.3.65,7.45.06,4.22-.78,7.2-2.81,8.74-4.05-1.54,1-6.46,3.91-13.1,3.28-5.8-.56-9.6-3.5-10.86-4.5-7.17-5.71-8.3-14.31-8.67-17.15-1.52-11.54,4.22-20.37,6.1-23.25,6.52-10.02,15.75-14.04,20.81-16.25,3.85-1.68,14.95-6.34,29.1-3.96,9.09,1.53,15.43,5.3,17.73,6.77,7.09,4.53,11.37,9.95,13.62,13.27-1.16-4.08-3.31-9.99-7.45-16.27Z"/>
      <circle class="cls-2" cx="91.43" cy="76.62" r="7.57"/>
    </g>
  </g>
  <g>
    <path class="cls-1" d="M214.72,134.5c0-.49-.08-.93-.22-1.31-.15-.38-.42-.72-.8-1.04-.38-.31-.9-.61-1.54-.89-.65-.28-1.47-.56-2.46-.85-1.04-.3-1.99-.64-2.83-1.02-.84-.38-1.56-.82-2.16-1.32-.59-.5-1.05-1.07-1.37-1.71-.32-.64-.48-1.37-.48-2.19s.17-1.59.51-2.29.83-1.31,1.46-1.83c.63-.52,1.38-.92,2.26-1.21s1.86-.44,2.94-.44c1.19,0,2.24.18,3.17.54.93.36,1.71.83,2.34,1.42.63.59,1.11,1.27,1.44,2.05s.49,1.57.49,2.4h-2.79c0-.59-.09-1.14-.28-1.64-.19-.5-.48-.94-.86-1.31-.39-.37-.87-.65-1.45-.86-.58-.2-1.26-.31-2.06-.31-.74,0-1.39.09-1.94.26s-1,.41-1.36.72c-.36.31-.62.67-.8,1.08s-.26.87-.26,1.37c0,.45.09.85.28,1.22.19.37.48.71.88,1.02.4.31.91.6,1.53.86.62.26,1.37.51,2.24.76,1.2.34,2.23.71,3.1,1.13s1.59.88,2.15,1.4c.56.52.98,1.11,1.26,1.76.28.65.41,1.39.41,2.21s-.17,1.64-.52,2.34c-.35.7-.84,1.29-1.48,1.79s-1.41.87-2.32,1.14c-.9.27-1.91.4-3.02.4-.65,0-1.29-.06-1.94-.18-.65-.12-1.27-.3-1.86-.54-.59-.24-1.14-.54-1.65-.9s-.95-.77-1.32-1.25-.67-1.01-.88-1.6-.32-1.24-.32-1.95h2.79c0,.73.14,1.35.43,1.87.28.52.67.95,1.14,1.29.48.34,1.03.59,1.65.75.62.16,1.28.24,1.96.24,1.47,0,2.59-.3,3.37-.9.78-.6,1.17-1.42,1.17-2.46Z"/>
    <path class="cls-1" d="M219.95,131.84c0-1.14.17-2.2.5-3.17.33-.97.81-1.82,1.42-2.54.61-.72,1.36-1.28,2.24-1.69.88-.41,1.86-.61,2.95-.61s2.11.2,2.99.61c.88.41,1.63.97,2.25,1.69s1.09,1.56,1.42,2.54c.33.97.49,2.03.49,3.17v.32c0,1.14-.16,2.2-.49,3.17s-.8,1.82-1.42,2.53-1.37,1.27-2.24,1.67-1.87.6-2.97.6-2.09-.2-2.97-.6c-.88-.4-1.63-.96-2.24-1.67-.62-.71-1.09-1.55-1.43-2.53s-.5-2.03-.5-3.17v-.32ZM222.64,132.16c0,.78.09,1.53.27,2.22.18.7.46,1.31.83,1.84.37.53.83.95,1.39,1.26s1.2.46,1.95.46,1.38-.15,1.94-.46c.56-.31,1.02-.73,1.39-1.26.37-.53.64-1.14.83-1.84s.28-1.44.28-2.22v-.32c0-.77-.09-1.51-.28-2.22-.19-.7-.47-1.32-.84-1.85-.37-.53-.84-.95-1.4-1.26-.56-.31-1.21-.47-1.95-.47s-1.38.16-1.93.47c-.55.31-1.01.74-1.38,1.26-.37.53-.65,1.14-.83,1.85-.18.7-.27,1.44-.27,2.22v.32Z"/>
    <path class="cls-1" d="M240.48,139.85h-2.68v-22.32h2.68v22.32Z"/>
    <path class="cls-1" d="M254.44,138.29c-.49.58-1.12,1.03-1.87,1.36-.75.32-1.66.49-2.72.49-.77,0-1.47-.11-2.1-.33-.63-.22-1.17-.56-1.62-1.03-.45-.47-.8-1.08-1.05-1.82-.25-.74-.37-1.63-.37-2.68v-10.16h2.68v10.18c0,.71.08,1.29.25,1.75.16.46.38.82.65,1.09.27.27.58.45.93.55s.7.15,1.07.15c1.09,0,1.97-.21,2.63-.62s1.15-.97,1.46-1.67v-11.43h2.68v15.72h-2.55l-.06-1.55Z"/>
    <path class="cls-1" d="M267.4,137.94c.47,0,.93-.08,1.36-.23.43-.15.82-.37,1.15-.64s.6-.59.81-.97c.21-.37.33-.78.37-1.21h2.53c-.04.7-.23,1.36-.57,2s-.79,1.19-1.35,1.67-1.21.86-1.95,1.15c-.74.29-1.52.43-2.35.43-1.18,0-2.2-.21-3.08-.63-.87-.42-1.6-.99-2.18-1.71-.58-.72-1.01-1.55-1.3-2.5s-.43-1.95-.43-3.01v-.61c0-1.06.14-2.06.43-3.01.28-.95.72-1.78,1.3-2.5.58-.72,1.3-1.29,2.17-1.71.87-.42,1.89-.63,3.07-.63.92,0,1.75.15,2.5.44.75.29,1.4.69,1.94,1.2.55.51.97,1.11,1.28,1.81.31.7.48,1.45.52,2.25h-2.53c-.04-.48-.15-.94-.34-1.36-.19-.42-.44-.79-.76-1.1-.32-.31-.7-.56-1.14-.75-.44-.18-.93-.28-1.47-.28-.83,0-1.52.16-2.06.49-.55.33-.98.76-1.32,1.3s-.57,1.14-.7,1.82c-.14.67-.2,1.35-.2,2.03v.61c0,.7.07,1.38.2,2.06.13.67.37,1.28.69,1.81s.77.96,1.32,1.29c.55.33,1.25.49,2.08.49Z"/>
    <path class="cls-1" d="M276.65,119.96c0-.44.13-.8.4-1.1s.66-.45,1.18-.45.92.15,1.19.45c.27.3.41.67.41,1.1s-.14.8-.41,1.09c-.27.29-.67.44-1.19.44s-.91-.15-1.18-.44-.4-.65-.4-1.09ZM279.55,139.85h-2.68v-15.72h2.68v15.72Z"/>
    <path class="cls-1" d="M283.12,131.84c0-1.14.17-2.2.5-3.17.33-.97.81-1.82,1.42-2.54s1.36-1.28,2.24-1.69c.88-.41,1.86-.61,2.95-.61s2.11.2,2.99.61c.88.41,1.63.97,2.25,1.69.62.72,1.09,1.56,1.42,2.54.33.97.49,2.03.49,3.17v.32c0,1.14-.16,2.2-.49,3.17-.33.97-.8,1.82-1.42,2.53-.62.71-1.37,1.27-2.25,1.67-.88.4-1.87.6-2.97.6s-2.09-.2-2.97-.6c-.88-.4-1.63-.96-2.25-1.67-.62-.71-1.09-1.55-1.43-2.53s-.5-2.03-.5-3.17v-.32ZM285.82,132.16c0,.78.09,1.53.28,2.22s.46,1.31.83,1.84c.37.53.83.95,1.39,1.26s1.2.46,1.95.46,1.38-.15,1.94-.46c.56-.31,1.02-.73,1.39-1.26.37-.53.64-1.14.83-1.84.19-.7.28-1.44.28-2.22v-.32c0-.77-.09-1.51-.28-2.22-.19-.7-.47-1.32-.84-1.85-.37-.53-.84-.95-1.4-1.26-.56-.31-1.21-.47-1.96-.47s-1.38.16-1.93.47c-.55.31-1.01.74-1.38,1.26-.37.53-.65,1.14-.83,1.85-.18.7-.28,1.44-.28,2.22v.32Z"/>
    <path class="cls-1" d="M303.28,124.13l.09,1.98c.56-.71,1.24-1.26,2.03-1.66.79-.4,1.68-.6,2.66-.6.76,0,1.45.1,2.07.31.62.21,1.14.54,1.58,1,.43.46.77,1.05,1.01,1.77s.35,1.6.35,2.62v10.3h-2.68v-10.33c0-.61-.07-1.13-.2-1.56-.14-.43-.34-.78-.6-1.05-.27-.27-.59-.47-.98-.6-.39-.13-.84-.19-1.35-.19-.87,0-1.63.23-2.29.7-.66.46-1.17,1.08-1.54,1.83v11.2h-2.68v-15.72h2.53Z"/>
    <path class="cls-1" d="M323.61,140.14c-1.09,0-2.08-.19-2.96-.57-.88-.38-1.64-.9-2.27-1.58-.63-.67-1.11-1.47-1.45-2.4-.34-.93-.51-1.95-.51-3.05v-.61c0-1.28.19-2.42.57-3.43.38-1.01.89-1.85,1.53-2.54.64-.69,1.37-1.21,2.19-1.58s1.67-.54,2.56-.54c1.12,0,2.08.2,2.9.59.81.39,1.48.93,2.01,1.62.53.69.91,1.5,1.17,2.44.25.94.38,1.96.38,3.07v1.21h-10.61c.02.73.14,1.4.35,2.03.22.63.53,1.18.93,1.64.4.46.88.83,1.45,1.1.56.27,1.2.41,1.92.41.95,0,1.75-.19,2.4-.58s1.23-.9,1.72-1.54l1.64,1.28c-.25.39-.55.76-.91,1.13s-.77.69-1.25.97c-.48.29-1.03.51-1.64.68-.62.17-1.32.25-2.1.25ZM323.28,126.05c-.54,0-1.04.1-1.49.3-.45.2-.86.49-1.22.86-.36.38-.65.85-.89,1.41-.24.56-.4,1.21-.49,1.93h7.85v-.2c-.03-.52-.11-1.04-.25-1.55-.14-.51-.36-.97-.65-1.38-.29-.41-.67-.74-1.14-.99-.46-.25-1.04-.38-1.72-.38Z"/>
    <path class="cls-1" d="M341.94,135.68c0-.29-.04-.56-.13-.82-.09-.26-.26-.5-.51-.73-.26-.23-.62-.44-1.09-.63s-1.1-.37-1.87-.54c-.87-.18-1.65-.4-2.35-.65s-1.29-.55-1.77-.91c-.49-.35-.86-.77-1.12-1.26s-.39-1.05-.39-1.7.14-1.21.41-1.77.66-1.05,1.17-1.47c.5-.42,1.11-.76,1.82-1,.71-.25,1.51-.37,2.39-.37.94,0,1.77.13,2.51.38.74.26,1.37.61,1.88,1.05.52.45.91.97,1.18,1.56s.41,1.23.41,1.91h-2.69c0-.32-.07-.64-.22-.97-.14-.32-.36-.61-.64-.87-.28-.26-.62-.46-1.03-.62-.41-.16-.87-.24-1.41-.24-.56,0-1.04.06-1.43.2s-.71.31-.96.52c-.25.22-.43.47-.55.74-.12.28-.17.56-.17.85s.05.55.15.78c.1.23.28.44.55.63s.64.36,1.11.52c.47.16,1.07.32,1.82.49.96.22,1.79.47,2.49.76.7.28,1.29.61,1.75.98.46.37.81.8,1.04,1.29s.34,1.05.34,1.69c0,.69-.14,1.32-.43,1.89-.28.57-.69,1.06-1.22,1.47s-1.17.72-1.91.95-1.57.34-2.48.34c-1.04,0-1.96-.15-2.76-.44-.8-.29-1.46-.68-2.01-1.15s-.95-1.03-1.23-1.64c-.28-.62-.42-1.25-.42-1.9h2.68c.03.55.16,1.01.4,1.39.24.37.53.68.89.91.36.23.75.4,1.17.49.42.1.85.15,1.27.15.55,0,1.03-.06,1.45-.17s.77-.28,1.05-.48c.29-.2.5-.44.64-.72.14-.28.22-.57.22-.89Z"/>
    <path class="cls-1" d="M361.96,140.14c-1.09,0-2.08-.19-2.96-.57-.88-.38-1.64-.9-2.27-1.58-.63-.67-1.11-1.47-1.45-2.4-.34-.93-.51-1.95-.51-3.05v-.61c0-1.28.19-2.42.57-3.43.38-1.01.89-1.85,1.53-2.54.64-.69,1.37-1.21,2.19-1.58s1.67-.54,2.56-.54c1.12,0,2.08.2,2.9.59.81.39,1.48.93,2.01,1.62.53.69.91,1.5,1.17,2.44.25.94.38,1.96.38,3.07v1.21h-10.61c.02.73.14,1.4.35,2.03.22.63.53,1.18.93,1.64.4.46.88.83,1.45,1.1.56.27,1.2.41,1.92.41.95,0,1.75-.19,2.4-.58s1.23-.9,1.72-1.54l1.64,1.28c-.25.39-.55.76-.91,1.13s-.77.69-1.25.97c-.48.29-1.03.51-1.64.68-.62.17-1.32.25-2.1.25ZM361.62,126.05c-.54,0-1.04.1-1.49.3-.45.2-.86.49-1.22.86-.36.38-.65.85-.89,1.41-.24.56-.4,1.21-.49,1.93h7.85v-.2c-.03-.52-.11-1.04-.25-1.55-.14-.51-.36-.97-.65-1.38-.29-.41-.67-.74-1.14-.99-.46-.25-1.04-.38-1.72-.38Z"/>
    <path class="cls-1" d="M373.7,124.13l.09,1.98c.56-.71,1.24-1.26,2.03-1.66.79-.4,1.68-.6,2.66-.6.76,0,1.45.1,2.07.31.62.21,1.14.54,1.58,1,.43.46.77,1.05,1.01,1.77s.35,1.6.35,2.62v10.3h-2.68v-10.33c0-.61-.07-1.13-.2-1.56-.14-.43-.34-.78-.6-1.05-.27-.27-.59-.47-.98-.6-.39-.13-.84-.19-1.35-.19-.87,0-1.63.23-2.29.7-.66.46-1.17,1.08-1.54,1.83v11.2h-2.68v-15.72h2.53Z"/>
    <path class="cls-1" d="M410.8,133.14c-.12,1-.36,1.93-.73,2.78-.37.86-.89,1.6-1.54,2.22-.66.62-1.46,1.11-2.4,1.47s-2.05.53-3.32.53-2.38-.23-3.39-.7-1.88-1.13-2.6-1.98c-.72-.86-1.27-1.89-1.67-3.09-.39-1.2-.59-2.54-.59-4.02v-2.12c0-1.48.2-2.83.59-4.03.4-1.21.96-2.24,1.69-3.09s1.62-1.52,2.67-1.99,2.22-.71,3.53-.71c1.19,0,2.24.17,3.16.52.92.35,1.7.83,2.34,1.46.64.62,1.15,1.37,1.53,2.24.38.87.62,1.82.72,2.87h-2.79c-.11-.74-.27-1.4-.49-1.99-.22-.59-.53-1.09-.92-1.51s-.88-.74-1.46-.96c-.58-.22-1.27-.33-2.08-.33-.94,0-1.76.18-2.47.54-.71.36-1.3.87-1.78,1.53-.48.65-.84,1.44-1.08,2.37s-.36,1.94-.36,3.06v2.15c0,1.04.11,2.01.33,2.92.22.91.55,1.71.99,2.39.44.68,1.01,1.22,1.69,1.61.68.39,1.5.59,2.43.59.89,0,1.64-.11,2.24-.32s1.11-.52,1.51-.92c.4-.4.71-.9.93-1.48.22-.59.39-1.25.51-2h2.79Z"/>
    <path class="cls-1" d="M417.08,139.85h-2.68v-22.32h2.68v22.32Z"/>
    <path class="cls-1" d="M421.38,119.96c0-.44.13-.8.4-1.1.27-.3.66-.45,1.18-.45s.92.15,1.19.45c.27.3.41.67.41,1.1s-.14.8-.41,1.09c-.27.29-.67.44-1.19.44s-.92-.15-1.18-.44c-.26-.29-.4-.65-.4-1.09ZM424.28,139.85h-2.68v-15.72h2.68v15.72Z"/>
    <path class="cls-1" d="M431.08,124.13l.07,1.74c.54-.64,1.19-1.14,1.96-1.5s1.66-.54,2.69-.54,1.91.2,2.69.6c.78.4,1.37,1.04,1.79,1.92.52-.76,1.2-1.37,2.03-1.83s1.82-.7,2.96-.7c.84,0,1.58.11,2.23.33.65.22,1.19.56,1.64,1.02.45.46.79,1.06,1.02,1.77s.35,1.57.35,2.56v10.33h-2.68v-10.34c0-.66-.08-1.21-.24-1.64s-.38-.78-.67-1.05c-.29-.26-.64-.44-1.06-.54s-.87-.15-1.38-.15c-.55,0-1.04.09-1.46.26s-.79.41-1.09.7c-.3.3-.54.64-.72,1.05-.18.4-.29.83-.34,1.29v10.43h-2.69v-10.33c0-.61-.08-1.13-.24-1.56-.16-.43-.38-.78-.67-1.05-.29-.27-.64-.47-1.05-.6-.41-.13-.87-.19-1.38-.19-.96,0-1.72.21-2.3.62s-1.01.96-1.3,1.63v11.48h-2.68v-15.72h2.53Z"/>
    <path class="cls-1" d="M464.23,139.85c-.1-.19-.17-.44-.23-.73-.06-.3-.11-.6-.15-.92-.25.26-.53.51-.85.75-.31.24-.66.45-1.03.62-.37.18-.77.32-1.21.42-.43.1-.89.15-1.38.15-.8,0-1.53-.12-2.18-.36-.65-.24-1.21-.57-1.67-.99-.46-.42-.81-.91-1.06-1.47-.25-.57-.38-1.17-.38-1.82,0-.84.16-1.59.49-2.23s.8-1.18,1.41-1.62c.61-.44,1.35-.76,2.22-.99.87-.22,1.84-.33,2.91-.33h2.66v-1.24c0-.94-.28-1.69-.84-2.24-.56-.56-1.39-.84-2.48-.84-.5,0-.96.07-1.38.2s-.77.32-1.06.54c-.29.23-.52.49-.69.79-.17.3-.25.62-.25.94h-2.69c0-.56.15-1.12.44-1.67.29-.55.71-1.05,1.25-1.49.54-.44,1.2-.8,1.96-1.08.77-.28,1.62-.41,2.57-.41.85,0,1.63.11,2.35.33.72.22,1.33.55,1.85.99.51.44.91.99,1.2,1.65.29.66.43,1.43.43,2.31v7.31c0,.53.05,1.09.14,1.68s.23,1.09.41,1.52v.23h-2.81ZM459.78,137.8c.48,0,.94-.07,1.36-.2.42-.14.81-.31,1.16-.53s.65-.47.91-.75c.25-.28.46-.57.6-.87v-3.23h-2.23c-1.53,0-2.72.24-3.55.72-.83.48-1.25,1.2-1.25,2.17,0,.38.06.73.19,1.06.13.33.32.61.57.85s.57.43.94.57c.37.14.8.21,1.3.21Z"/>
    <path class="cls-1" d="M474.32,120.32v3.81h2.92v2.08h-2.92v9.75c0,.41.05.73.14.98s.22.44.38.57c.16.14.34.23.55.27.21.04.42.07.64.07s.46-.02.7-.07.44-.08.57-.11v2.18c-.21.06-.49.12-.83.19-.34.07-.75.1-1.23.1s-.96-.07-1.4-.21c-.44-.14-.82-.38-1.15-.7-.33-.33-.59-.76-.78-1.3s-.29-1.2-.29-1.98v-9.73h-2.85v-2.08h2.85v-3.81h2.68Z"/>
    <path class="cls-1" d="M480.39,119.96c0-.44.13-.8.4-1.1.27-.3.66-.45,1.18-.45s.92.15,1.19.45c.27.3.41.67.41,1.1s-.14.8-.41,1.09c-.27.29-.67.44-1.19.44s-.92-.15-1.18-.44c-.26-.29-.4-.65-.4-1.09ZM483.29,139.85h-2.68v-15.72h2.68v15.72Z"/>
    <path class="cls-1" d="M490.09,137.65h9.17v2.19h-12.44v-1.98l8.64-11.52h-8.51v-2.22h11.87v1.9l-8.73,11.62Z"/>
    <path class="cls-1" d="M511.94,139.85c-.1-.19-.17-.44-.23-.73-.06-.3-.11-.6-.15-.92-.25.26-.53.51-.85.75-.31.24-.66.45-1.03.62-.37.18-.77.32-1.21.42-.43.1-.89.15-1.38.15-.8,0-1.53-.12-2.18-.36-.65-.24-1.21-.57-1.67-.99-.46-.42-.81-.91-1.06-1.47-.25-.57-.38-1.17-.38-1.82,0-.84.16-1.59.49-2.23s.8-1.18,1.41-1.62c.61-.44,1.35-.76,2.22-.99.87-.22,1.84-.33,2.91-.33h2.66v-1.24c0-.94-.28-1.69-.84-2.24-.56-.56-1.39-.84-2.48-.84-.5,0-.96.07-1.38.2s-.77.32-1.06.54c-.29.23-.52.49-.69.79-.17.3-.25.62-.25.94h-2.69c0-.56.15-1.12.44-1.67.29-.55.71-1.05,1.25-1.49.54-.44,1.2-.8,1.96-1.08.77-.28,1.62-.41,2.57-.41.85,0,1.63.11,2.35.33.72.22,1.33.55,1.85.99.51.44.91.99,1.2,1.65.29.66.43,1.43.43,2.31v7.31c0,.53.05,1.09.14,1.68s.23,1.09.41,1.52v.23h-2.81ZM507.5,137.8c.48,0,.94-.07,1.36-.2.42-.14.81-.31,1.16-.53s.65-.47.91-.75c.25-.28.46-.57.6-.87v-3.23h-2.23c-1.53,0-2.72.24-3.55.72-.83.48-1.25,1.2-1.25,2.17,0,.38.06.73.19,1.06.13.33.32.61.57.85s.57.43.94.57c.37.14.8.21,1.3.21Z"/>
    <path class="cls-1" d="M524.68,137.94c.47,0,.93-.08,1.36-.23.43-.15.82-.37,1.15-.64s.6-.59.81-.97c.21-.37.33-.78.37-1.21h2.53c-.04.7-.23,1.36-.57,2-.34.63-.79,1.19-1.35,1.67s-1.21.86-1.95,1.15-1.52.43-2.35.43c-1.18,0-2.2-.21-3.08-.63-.87-.42-1.6-.99-2.18-1.71s-1.01-1.55-1.3-2.5c-.29-.95-.43-1.95-.43-3.01v-.61c0-1.06.14-2.06.43-3.01.28-.95.72-1.78,1.3-2.5.58-.72,1.3-1.29,2.17-1.71s1.89-.63,3.07-.63c.92,0,1.75.15,2.5.44.75.29,1.4.69,1.94,1.2.54.51.97,1.11,1.28,1.81.31.7.48,1.45.52,2.25h-2.53c-.04-.48-.15-.94-.34-1.36s-.44-.79-.76-1.1c-.32-.31-.7-.56-1.14-.75s-.93-.28-1.47-.28c-.83,0-1.52.16-2.06.49-.54.33-.98.76-1.32,1.3s-.57,1.14-.7,1.82c-.14.67-.2,1.35-.2,2.03v.61c0,.7.07,1.38.2,2.06.13.67.37,1.28.7,1.81.33.53.77.96,1.32,1.29.55.33,1.25.49,2.08.49Z"/>
    <path class="cls-1" d="M533.94,119.96c0-.44.13-.8.4-1.1.27-.3.66-.45,1.18-.45s.92.15,1.19.45c.27.3.41.67.41,1.1s-.14.8-.41,1.09c-.27.29-.67.44-1.19.44s-.92-.15-1.18-.44c-.26-.29-.4-.65-.4-1.09ZM536.83,139.85h-2.68v-15.72h2.68v15.72Z"/>
    <path class="cls-1" d="M540.41,131.84c0-1.14.17-2.2.5-3.17.33-.97.81-1.82,1.42-2.54s1.36-1.28,2.24-1.69c.88-.41,1.86-.61,2.95-.61s2.11.2,2.99.61c.88.41,1.63.97,2.25,1.69.62.72,1.09,1.56,1.42,2.54.33.97.49,2.03.49,3.17v.32c0,1.14-.16,2.2-.49,3.17-.33.97-.8,1.82-1.42,2.53-.62.71-1.37,1.27-2.25,1.67-.88.4-1.87.6-2.97.6s-2.09-.2-2.97-.6c-.88-.4-1.63-.96-2.25-1.67-.62-.71-1.09-1.55-1.43-2.53s-.5-2.03-.5-3.17v-.32ZM543.1,132.16c0,.78.09,1.53.28,2.22s.46,1.31.83,1.84c.37.53.83.95,1.39,1.26s1.2.46,1.95.46,1.38-.15,1.94-.46c.56-.31,1.02-.73,1.39-1.26.37-.53.64-1.14.83-1.84.19-.7.28-1.44.28-2.22v-.32c0-.77-.09-1.51-.28-2.22-.19-.7-.47-1.32-.84-1.85-.37-.53-.84-.95-1.4-1.26-.56-.31-1.21-.47-1.96-.47s-1.38.16-1.93.47c-.55.31-1.01.74-1.38,1.26-.37.53-.65,1.14-.83,1.85-.18.7-.28,1.44-.28,2.22v.32ZM548.75,117.56h3.24l-3.88,4.27h-2.16l2.79-4.27Z"/>
    <path class="cls-1" d="M560.57,124.13l.09,1.98c.56-.71,1.24-1.26,2.03-1.66.79-.4,1.68-.6,2.66-.6.76,0,1.45.1,2.07.31.62.21,1.14.54,1.58,1,.43.46.77,1.05,1.01,1.77s.35,1.6.35,2.62v10.3h-2.68v-10.33c0-.61-.07-1.13-.2-1.56-.14-.43-.34-.78-.6-1.05-.27-.27-.59-.47-.98-.6-.39-.13-.84-.19-1.35-.19-.87,0-1.63.23-2.29.7-.66.46-1.17,1.08-1.54,1.83v11.2h-2.68v-15.72h2.53Z"/>
  </g>
</svg>