<svg id="Capa_1" data-name="Capa 1" xmlns="http://www.w3.org/2000/svg" viewBox="0 0 370.59 259.14"><defs><style>.cls-1{fill:#0e4655;}.cls-2{fill:#f24405;}</style></defs><path class="cls-1" d="M55.49,252.11H8.42l25.95-48.64H8.42V191.3H55.49L29.62,239.94H55.49Z"/><path class="cls-1" d="M92.4,252.11H80.27V203.47H62V191.3h48.64v12.17H92.4Z"/><path class="cls-1" d="M193.84,244.82a30.11,30.11,0,0,1-19.7,7.29,29.39,29.39,0,0,1-8-1.09,30.4,30.4,0,0,1-13.41-7.84,30.15,30.15,0,0,1-7.84-13.41,30.31,30.31,0,0,1,0-16.11,30.24,30.24,0,0,1,3.06-7.27,30.65,30.65,0,0,1,4.78-6.16,30.55,30.55,0,0,1,13.41-7.85,29.77,29.77,0,0,1,8-1.08,30.42,30.42,0,0,1,10.53,1.86,29.29,29.29,0,0,1,9.17,5.43l-6.22,10.24a17.53,17.53,0,0,0-6.1-4.28,18.66,18.66,0,0,0-7.38-1.5,18,18,0,0,0-7.28,1.48,19,19,0,0,0-5.94,4,18.72,18.72,0,0,0-4,5.94,18.2,18.2,0,0,0-1.47,7.27A17.89,17.89,0,0,0,156.9,229a18.94,18.94,0,0,0,10,9.93,18,18,0,0,0,7.28,1.48,18.66,18.66,0,0,0,7.38-1.5,17.53,17.53,0,0,0,6.1-4.28Z"/><path class="cls-1" d="M214.9,252.11H203.64v-61.3H214.9Z"/><path class="cls-2" d="M238.88,195.07a5.38,5.38,0,0,1-.44,2.16,5.65,5.65,0,0,1-1.21,1.75,5.91,5.91,0,0,1-1.78,1.19,5.62,5.62,0,0,1-4.36,0,5.69,5.69,0,0,1-1.76-1.19,5.59,5.59,0,0,1-1.19-1.75,5.38,5.38,0,0,1-.44-2.16,5.44,5.44,0,0,1,.44-2.15,5.57,5.57,0,0,1,1.19-1.77,5.87,5.87,0,0,1,1.76-1.19,5.62,5.62,0,0,1,4.36,0,6.1,6.1,0,0,1,1.78,1.19,5.62,5.62,0,0,1,1.21,1.77A5.44,5.44,0,0,1,238.88,195.07Z"/><rect class="cls-1" x="227.62" y="208.25" width="11.26" height="43.86"/><path class="cls-1" d="M307.36,252.11H296.22V224.26a5.53,5.53,0,0,0-.43-2.17,5.59,5.59,0,0,0-5.18-3.44,5.54,5.54,0,0,0-2.15.43,5.48,5.48,0,0,0-1.76,1.21,5.73,5.73,0,0,0-1.18,1.8,5.54,5.54,0,0,0-.44,2.17v27.85H273.91V224.26a5.71,5.71,0,0,0-.43-2.17,5.64,5.64,0,0,0-3-3,5.71,5.71,0,0,0-2.17-.43,5.47,5.47,0,0,0-2.15.43,5.37,5.37,0,0,0-1.76,1.21,5.59,5.59,0,0,0-1.19,1.8,5.53,5.53,0,0,0-.43,2.17v27.85H251.59V208.25h2.7l3,3.36a18,18,0,0,1,5.14-3.05,16.1,16.1,0,0,1,5.84-1.09,16.39,16.39,0,0,1,6,1.15,12.06,12.06,0,0,1,5.14,4,11.2,11.2,0,0,1,2.34-2.37,12.78,12.78,0,0,1,2.76-1.6,13.68,13.68,0,0,1,3-.88,18,18,0,0,1,3.07-.27,16.5,16.5,0,0,1,6.54,1.31,17,17,0,0,1,5.32,3.59,16.78,16.78,0,0,1,4.89,11.89Z"/><path class="cls-1" d="M362.17,251.29h-2.7l-4.34-6a35.19,35.19,0,0,1-3.38,2.68,24.19,24.19,0,0,1-3.75,2.17,23.17,23.17,0,0,1-4,1.46,17,17,0,0,1-4.2.53,24.11,24.11,0,0,1-8.7-1.56,20.58,20.58,0,0,1-7.13-4.52,21.18,21.18,0,0,1-4.81-7.27,25.74,25.74,0,0,1-1.76-9.79,24.58,24.58,0,0,1,1.76-9.4,22.43,22.43,0,0,1,4.81-7.35,22,22,0,0,1,7.13-4.77,22.42,22.42,0,0,1,8.7-1.7,16.79,16.79,0,0,1,4.22.54,21.36,21.36,0,0,1,4.05,1.47,26.16,26.16,0,0,1,3.75,2.21,31.83,31.83,0,0,1,3.34,2.74l4.34-5.19h2.7ZM350.91,229a11.53,11.53,0,0,0-.88-4.44,13,13,0,0,0-2.4-3.81,11.86,11.86,0,0,0-3.54-2.66,9.58,9.58,0,0,0-4.32-1,12.12,12.12,0,0,0-4.32.77,9.82,9.82,0,0,0-3.52,2.3,10.86,10.86,0,0,0-2.36,3.74,15.55,15.55,0,0,0,0,10.2,10.81,10.81,0,0,0,2.36,3.75,9.8,9.8,0,0,0,3.52,2.29,11.91,11.91,0,0,0,4.32.78,9.59,9.59,0,0,0,4.32-1,11.69,11.69,0,0,0,3.54-2.66,12.69,12.69,0,0,0,2.4-3.81A11.53,11.53,0,0,0,350.91,229Z"/><path class="cls-1" d="M203.69,71a19.18,19.18,0,0,0-.75-2.79,19.38,19.38,0,0,0-3.11-5.53,19.36,19.36,0,0,1,2.83,14.46,18.73,18.73,0,0,1-.89,3c-.12.3-.23.59-.36.87a19.37,19.37,0,0,1-1.75,3.17c-.2.3-.39.56-.56.78s-.31.41-.43.56c-.34.43-.69.83-1,1.22a20.33,20.33,0,0,1-3.42,2.91A20.72,20.72,0,0,1,191.82,91a28.57,28.57,0,0,1-9.49,2.74c-11,1.45-19.4-4-22.15-5.81a36.35,36.35,0,0,1-8.54-7.73c-.73-.9-1.39-1.81-2-2.7-.3-.45-.59-.89-.86-1.33-.83-1.32-1.52-2.61-2.13-3.81-.8-1.6-1.44-3-2-4.25a51.39,51.39,0,0,1-4-14,46.14,46.14,0,0,1,.22-13.72,47.5,47.5,0,0,1,1.43-6c.28-.91.58-1.77.89-2.59a44.55,44.55,0,0,1,1.86-4.29,42.55,42.55,0,0,1,2.27-4,44.77,44.77,0,0,1,12.65-13,55.81,55.81,0,0,0-22.38,12.44,57.37,57.37,0,0,0-8.17,9.25c-.28.4-.55.8-.8,1.18-.51.76-1,1.48-1.37,2.15s-.76,1.28-1.06,1.83L125.31,39h0l-.21.4c-.25.47-.51,1-.77,1.48-.11.23-.23.47-.34.71-.22.45-.44.91-.66,1.39-.13.29-.25.59-.38.88-.2.48-.4,1-.59,1.45-.13.33-.26.67-.38,1-.19.51-.36,1-.53,1.57-.12.37-.23.73-.34,1.11-.16.56-.31,1.15-.45,1.74-.1.38-.19.75-.27,1.15-.15.66-.26,1.36-.37,2.06-.06.36-.12.69-.17,1.06-.14,1.08-.25,2.19-.3,3.35,0,1-.06,2,0,2.89a44.74,44.74,0,0,0,8.31,24.35c.76,1.1,1.41,1.92,1.83,2.46a47.17,47.17,0,0,0,8.42,8.14,48.12,48.12,0,0,0,5,3.28c3.33,1.91,14.48,8.09,29,6A39.89,39.89,0,0,0,191,97.88c.71-.55,1.38-1.1,2-1.65a34.79,34.79,0,0,0,7.14-8.63c.3-.55.58-1.07.83-1.59l.25-.52c.16-.33.31-.66.44-1l.25-.6c.11-.27.21-.53.31-.79s.15-.4.22-.6c0,0,0-.07,0-.11.11-.3.2-.6.29-.88l.12-.41c.08-.24.14-.48.2-.7s.08-.28.11-.41.1-.42.14-.62l.06-.25c.05-.22.08-.41.12-.57s0-.1,0-.15.05-.29.07-.38c.06-.43.13-.9.2-1.41s.11-1.06.13-1.66A17.65,17.65,0,0,0,203.69,71Z"/><path class="cls-2" d="M217.83,86.21a39.89,39.89,0,0,0-7.67-18.93,35.22,35.22,0,0,0-10.28-9.14,31.81,31.81,0,0,0-5.17-2.34,24.86,24.86,0,0,0-4.37-1.12,19.79,19.79,0,0,0-7.1-.06,18.77,18.77,0,0,0-8.32,3.85,19.73,19.73,0,0,1,12.48-3.12,19.51,19.51,0,0,1,10.34,4.28c6.83,5.44,7.91,13.64,8.26,16.34,1.45,11-4,19.4-5.81,22.15-6.21,9.55-15,13.38-19.83,15.48a48.58,48.58,0,0,1-27.72,3.78,45.8,45.8,0,0,1-16.89-6.45,44.83,44.83,0,0,1-13-12.64,56.12,56.12,0,0,0,26.84,33.77c.53.29,1.09.61,1.69.93a43.85,43.85,0,0,0,19.36,5.76c15.74.73,26.85-7.84,29.7-10.11a47.27,47.27,0,0,0,11.42-13.38C213.71,111.92,219.89,100.77,217.83,86.21Z"/><path class="cls-1" d="M240.92,57.93a47.12,47.12,0,0,0-13.38-11.42c-3.33-1.92-14.48-8.1-29-6a39.89,39.89,0,0,0-18.93,7.67,35.32,35.32,0,0,0-9.14,10.28,31,31,0,0,0-2.34,5.17A26.08,26.08,0,0,0,167,68a20.2,20.2,0,0,0-.06,7.09,18.75,18.75,0,0,0,3.86,8.33,19.77,19.77,0,0,1-3.12-12.49,19.55,19.55,0,0,1,4.28-10.34c5.44-6.83,13.63-7.9,16.34-8.26,11-1.44,19.4,4,22.15,5.81,9.54,6.21,13.38,15,15.48,19.83a48.6,48.6,0,0,1,3.77,27.72,45.84,45.84,0,0,1-6.44,16.89,44.71,44.71,0,0,1-12.65,13,56.16,56.16,0,0,0,33.78-26.84l.93-1.69A43.94,43.94,0,0,0,251,87.63C251.77,71.89,243.19,60.78,240.92,57.93Z"/><path class="cls-2" d="M240.71,32.23A56.55,56.55,0,0,0,221,14L219.28,13a44,44,0,0,0-19.36-5.77c-15.74-.72-26.85,7.85-29.7,10.12a47.26,47.26,0,0,0-11.43,13.38c-1.91,3.33-8.09,14.48-6,29a39.74,39.74,0,0,0,7.67,18.93,35.06,35.06,0,0,0,10.28,9.14,30.61,30.61,0,0,0,5.17,2.34,25.28,25.28,0,0,0,4.37,1.13,19.79,19.79,0,0,0,7.1.06,18.82,18.82,0,0,0,8.32-3.85,19.8,19.8,0,0,1-12.48,3.12,19.45,19.45,0,0,1-10.34-4.29C166,81,164.94,72.75,164.59,70c-1.45-11,4-19.4,5.81-22.15,6.21-9.54,15-13.38,19.83-15.48A48.6,48.6,0,0,1,218,28.64a45.87,45.87,0,0,1,16.88,6.44,44.9,44.9,0,0,1,13,12.65A56.46,56.46,0,0,0,240.71,32.23Z"/><circle class="cls-2" cx="184.78" cy="73.52" r="7.21"/></svg>